<svg version="1.1" xmlns="http://www.w3.org/2000/svg" xmlns:xlink="http://www.w3.org/1999/xlink" width="756.000000pt" height="426.000000pt" viewBox="0,0,256,144.25"><g fill="#ffffff" fill-rule="nonzero" stroke="none" stroke-width="1" stroke-linecap="butt" stroke-linejoin="miter" stroke-miterlimit="10" stroke-dasharray="" stroke-dashoffset="0" font-family="none" font-weight="none" font-size="none" text-anchor="none" style="mix-blend-mode: normal"><g transform="translate(-0.07576,2.45542) scale(0.33862,0.33862)"><g transform="translate(0,426) scale(0.1,-0.1)"><path d="M2420,3989c-379,-42 -619,-128 -771,-279c-215,-213 -224,-510 -30,-915c49,-103 166,-305 175,-305c2,0 -8,28 -21,62c-14,34 -38,113 -54,175c-162,641 147,983 887,983c697,0 1474,-297 2199,-840c251,-189 511,-420 622,-553c266,-319 399,-644 363,-886c-39,-258 -223,-440 -570,-566l-95,-34h75c349,-3 684,178 815,439c119,239 84,544 -101,873c-103,182 -295,421 -485,601c-681,648 -1632,1121 -2474,1231c-148,20 -421,27 -535,14z"></path><path d="M1947,2852c-37,-7 -16,-30 35,-36c86,-12 144,-50 180,-120c11,-21 149,-391 308,-821c159,-431 293,-792 299,-804c22,-40 55,-19 86,54c9,22 80,202 157,400c219,564 426,1083 461,1159c41,87 79,122 146,131c52,7 70,18 50,31c-17,10 -471,12 -492,2c-28,-14 -12,-25 48,-33c57,-7 85,-24 85,-54c0,-32 -30,-121 -231,-683c-109,-306 -199,-561 -199,-567c0,-50 -43,66 -213,572c-108,320 -201,602 -206,627c-15,68 1,92 69,107c30,6 57,12 59,12c3,1 0,6 -6,12c-9,9 -102,12 -316,13c-167,1 -311,0 -320,-2z"></path><path d="M3403,2228c-4,-7 -13,-380 -19,-828c-9,-640 -15,-824 -25,-855c-16,-45 -46,-65 -101,-65c-46,0 -68,-8 -68,-26c0,-12 47,-14 279,-14c195,0 282,3 287,11c10,17 -16,29 -63,29c-79,0 -115,28 -134,107c-9,34 -43,1143 -36,1150c2,1 80,-88 173,-199c93,-111 301,-351 463,-533c553,-620 546,-614 574,-586c7,7 14,281 23,819c8,504 16,824 23,849c15,54 40,74 103,82c38,4 54,11 56,23c3,15 -18,17 -270,15c-235,-2 -273,-4 -273,-17c0,-11 17,-16 69,-21c61,-5 73,-10 97,-36c18,-21 29,-47 33,-79c7,-51 26,-814 26,-1037c0,-71 -4,-127 -9,-125c-4,2 -105,116 -223,254c-118,137 -274,317 -348,400c-73,82 -239,272 -367,422c-129,149 -240,272 -248,272c-8,0 -17,-6 -22,-12z"></path></g></g></g></svg>