
<svg version="1.0" xmlns="http://www.w3.org/2000/svg"
 width="1600.000000pt" height="1598.000000pt" viewBox="0 0 1600.000000 1598.000000"
 preserveAspectRatio="xMidYMid meet">

<g transform="translate(0.000000,1598.000000) scale(0.100000,-0.100000)"
fill="#000000" stroke="none">
<path d="M7520 15900 c0 -54 -7 -99 -24 -151 -13 -41 -27 -90 -31 -109 -4 -19
-16 -46 -26 -59 -25 -32 -24 -36 11 -51 41 -17 57 -70 42 -143 -10 -52 1 -142
17 -135 3 2 23 10 44 18 35 13 37 17 37 56 0 40 4 46 98 133 l97 90 129 1
c126 0 130 -1 178 -31 28 -16 53 -28 56 -25 7 8 -16 85 -34 114 -11 17 -15 48
-13 109 2 84 1 87 -27 109 -24 20 -30 21 -37 8 -4 -8 -6 -23 -2 -33 3 -10 1
-29 -4 -42 -12 -33 -20 -11 -23 71 l-3 65 -135 1 c-74 0 -155 6 -180 12 -24 6
-45 10 -45 9 -1 -1 -12 -17 -25 -35 -20 -30 -24 -32 -37 -19 -9 8 -18 35 -20
60 -4 33 -10 47 -24 50 -17 5 -19 -1 -19 -73z"/>
<path d="M8603 15894 c-10 -68 -22 -107 -58 -180 -26 -52 -53 -98 -62 -102
-24 -14 -11 -46 20 -52 15 -3 49 -24 76 -47 28 -24 53 -43 56 -43 4 0 32 20
63 44 l57 44 180 -14 c251 -19 245 -19 245 11 0 48 -144 165 -203 165 -6 0
-25 -14 -43 -31 -32 -31 -32 -31 -43 -10 -7 12 -20 21 -31 21 -59 0 -71 47
-17 71 44 19 40 40 -13 65 -37 17 -50 32 -69 72 -26 55 -52 72 -109 72 l-38 0
-11 -86z"/>
<path d="M6448 15712 c-4 -111 -6 -122 -40 -194 -20 -41 -38 -88 -40 -104 -3
-28 -1 -29 45 -32 l49 -3 -4 -40 c-3 -31 -1 -38 12 -34 8 2 62 15 120 29 58
13 176 40 263 60 l157 36 41 -21 41 -20 -7 23 c-4 13 -13 34 -20 48 -7 14 -18
45 -25 70 -12 44 -35 80 -52 80 -4 0 -8 -16 -8 -35 0 -28 -4 -35 -19 -35 -11
0 -29 13 -40 29 l-20 28 29 39 c16 22 30 48 30 58 0 27 -48 106 -65 106 -7 0
-20 3 -28 6 -11 4 -17 -5 -24 -33 -9 -38 -9 -38 -55 -35 -39 3 -48 0 -58 -18
-11 -20 -11 -20 -38 -2 -19 14 -34 17 -48 12 -11 -5 -47 -11 -78 -15 -63 -8
-62 -10 -39 52 6 15 -41 63 -60 63 -12 0 -15 -25 -19 -118z"/>
<path d="M9685 15703 c-21 -43 -58 -98 -80 -123 -23 -25 -52 -60 -65 -78 l-23
-34 73 -73 73 -74 77 39 c54 27 99 42 154 49 69 10 87 8 183 -14 58 -14 108
-23 110 -21 8 7 -18 131 -32 152 -8 12 -15 46 -17 75 -3 47 -6 54 -25 57 -13
2 -41 -7 -63 -19 -32 -18 -45 -21 -58 -13 -29 19 -25 40 10 54 47 19 57 28 51
49 -6 25 -50 33 -188 36 -60 2 -117 6 -126 9 -11 5 -24 -12 -54 -71z"/>
<path d="M5343 15588 c4 -13 15 -54 26 -93 15 -52 20 -102 20 -192 1 -135 0
-138 -69 -173 -49 -25 -70 -46 -70 -71 0 -29 26 -34 56 -10 32 25 99 28 131 6
12 -8 24 -28 28 -45 l6 -29 37 14 c20 8 116 41 213 75 202 69 275 77 371 40
28 -11 54 -18 56 -16 7 7 -37 97 -63 129 -14 18 -44 56 -66 85 -22 28 -47 52
-57 52 -10 0 -44 -25 -76 -55 -50 -48 -63 -55 -97 -55 -44 0 -47 6 -24 70 8
23 15 46 15 51 0 17 -22 9 -41 -15 -18 -23 -25 -24 -72 -19 -29 3 -69 14 -89
24 -46 24 -46 24 -50 -3 -2 -15 -10 -23 -23 -23 -23 0 -43 49 -52 129 -8 67
-57 146 -91 146 -20 0 -23 -4 -19 -22z"/>
<path d="M8231 15449 c-30 -28 -57 -46 -60 -41 -3 5 -33 26 -66 46 l-60 36
-130 0 -130 0 -68 -66 c-65 -62 -68 -68 -63 -102 3 -21 8 -260 12 -532 l6
-496 69 -57 68 -57 121 0 121 0 54 51 c29 27 56 46 59 40 4 -5 34 -27 69 -48
l62 -38 125 4 c113 2 128 5 156 26 l31 24 23 -24 c26 -28 37 -30 270 -45 91
-6 234 -16 318 -22 142 -11 156 -10 184 7 30 17 30 17 52 -8 17 -19 45 -30
141 -52 l120 -28 52 29 53 28 53 -52 c55 -54 46 -51 262 -102 42 -10 51 -5
175 99 l34 29 -22 134 c-12 73 -22 136 -22 140 0 4 24 22 54 38 l54 31 22 92
c11 51 28 123 36 161 16 66 17 68 43 63 14 -3 38 -10 53 -16 l27 -10 -29 -88
c-115 -349 -200 -617 -200 -627 0 -6 20 -42 43 -80 l42 -69 120 -38 120 -38
85 39 c47 21 88 45 92 52 4 7 55 162 114 343 58 182 109 333 113 337 3 4 23 2
44 -4 28 -9 43 -8 63 1 15 6 28 10 30 9 1 -2 -69 -165 -157 -362 -87 -197
-159 -362 -159 -368 0 -5 14 -42 30 -81 l30 -72 266 -117 c146 -65 273 -118
282 -118 9 0 54 13 100 28 l83 28 40 89 c21 49 39 94 39 100 0 5 -14 42 -31
81 l-31 70 -99 44 c-54 24 -97 45 -95 47 2 3 36 -9 74 -26 39 -17 77 -31 85
-31 7 0 52 13 98 29 l84 29 41 92 42 92 -25 56 c-13 30 -22 61 -19 68 3 7 36
23 75 35 l70 23 40 93 41 94 -33 76 c-29 70 -36 77 -77 95 -25 11 -145 64
-268 119 l-223 100 -66 -22 c-37 -12 -68 -18 -70 -13 -2 5 -18 34 -36 64 -38
63 3 46 -440 189 l-278 90 -51 -24 -52 -24 -37 52 -37 52 -254 59 c-212 48
-262 57 -303 51 -61 -9 -238 -96 -282 -138 l-32 -30 5 69 6 69 -64 62 -63 61
-360 25 -360 26 -30 -21 c-16 -12 -44 -32 -61 -45 l-31 -23 -55 45 -55 45
-119 0 -119 -1 -54 -50z m293 -121 c3 -29 8 -270 12 -535 l7 -483 -125 0 -124
0 -79 188 c-43 103 -88 210 -101 237 -12 28 -32 75 -45 105 -12 30 -25 58 -28
62 -3 4 -5 -130 -3 -297 l3 -305 -114 0 -115 0 -6 298 c-3 163 -7 403 -8 532
l-3 235 124 0 124 0 59 -140 c32 -77 86 -205 119 -285 34 -80 65 -152 70 -160
6 -9 7 103 3 293 l-7 307 115 0 116 0 6 -52z m516 26 c124 -8 269 -17 323 -21
l97 -6 0 -41 c0 -23 -7 -133 -15 -246 -8 -113 -19 -272 -25 -355 -19 -266 -32
-420 -34 -423 -2 -1 -68 2 -147 8 -79 6 -209 15 -289 20 -80 5 -176 13 -214
16 l-69 6 7 112 c3 61 13 206 21 321 8 116 19 275 25 355 5 80 13 175 16 211
l6 67 37 -4 c20 -3 137 -11 261 -20z m1026 -144 c71 -17 181 -42 245 -56 l116
-26 -22 -97 c-77 -336 -129 -556 -131 -560 -2 -2 -32 3 -68 11 -37 8 -66 12
-66 9 0 -3 15 -96 34 -206 18 -110 33 -201 32 -202 -1 -1 -47 9 -101 22 -55
14 -108 25 -117 25 -9 0 -19 3 -22 8 -2 4 -17 96 -32 206 -27 187 -30 199 -52
207 -44 17 -48 12 -70 -88 -41 -186 -60 -265 -65 -269 -5 -5 -227 43 -235 51
-4 4 195 886 201 891 10 8 205 103 213 103 5 1 68 -13 140 -29z m849 -240
c343 -111 355 -116 355 -128 0 -10 -32 -112 -49 -154 l-10 -27 -103 35 c-113
38 -118 39 -118 23 0 -21 -261 -809 -268 -809 -7 0 -225 71 -229 75 -3 2 -2 6
152 480 59 182 109 333 112 337 2 4 -48 24 -111 44 l-114 36 12 37 c7 20 21
62 31 94 10 31 20 57 24 57 3 0 145 -45 316 -100z m850 -330 c127 -57 232
-104 233 -106 4 -3 -67 -165 -77 -176 -3 -3 -71 23 -150 58 -79 35 -148 64
-153 64 -8 0 -68 -121 -82 -168 -6 -17 12 -27 138 -82 133 -58 144 -64 136
-84 -24 -62 -70 -156 -76 -156 -4 0 -68 27 -142 61 -74 33 -138 57 -143 52 -8
-9 -99 -212 -99 -223 0 -3 64 -35 143 -70 78 -35 146 -67 151 -71 10 -8 -62
-179 -75 -179 -9 0 -519 227 -526 234 -3 3 21 67 55 143 88 201 363 816 368
825 3 4 19 2 37 -6 18 -8 136 -60 262 -116z"/>
<path d="M8976 15148 c-2 -7 -9 -98 -15 -203 -7 -104 -17 -248 -23 -318 -6
-70 -8 -130 -6 -133 3 -2 54 -5 114 -7 l109 -2 22 300 c12 165 22 312 22 327
1 24 -3 27 -41 32 -126 15 -178 16 -182 4z"/>
<path d="M9916 14908 c-15 -68 -28 -130 -29 -138 -3 -18 182 -64 188 -46 3 9
37 149 59 248 3 13 -14 20 -88 37 -50 12 -94 21 -97 21 -3 0 -18 -55 -33 -122z"/>
<path d="M10852 15452 c-16 -3 -25 -12 -29 -33 -4 -23 -11 -29 -33 -29 -19 0
-30 7 -38 25 -8 17 -20 25 -36 25 -21 0 -27 -9 -44 -59 -11 -32 -27 -67 -36
-78 -65 -75 -87 -103 -82 -103 4 0 30 10 57 21 l50 22 67 -20 c37 -12 160 -51
275 -89 l207 -67 36 34 c45 44 43 74 -8 109 -21 14 -61 56 -90 94 -29 39 -70
86 -92 105 -35 33 -46 36 -110 41 -39 3 -81 4 -94 2z"/>
<path d="M6670 15291 c-179 -42 -332 -79 -341 -83 -8 -3 -36 -37 -62 -75 -43
-63 -46 -71 -38 -105 5 -21 7 -38 5 -38 -2 0 -49 18 -104 40 -149 59 -164 58
-457 -42 l-242 -83 -41 -73 -41 -74 80 -231 c44 -128 122 -356 174 -507 l94
-274 89 -40 89 -39 125 42 c423 143 440 151 489 235 13 23 25 43 27 45 2 2 27
-11 57 -28 l54 -31 356 83 356 82 49 71 50 70 -38 165 c-21 90 -74 322 -119
516 -44 193 -81 353 -81 356 0 11 -164 97 -184 96 -11 -1 -167 -36 -346 -78z
m437 -231 c24 -102 59 -255 79 -340 20 -85 44 -191 54 -235 11 -44 29 -122 41
-173 12 -51 20 -95 17 -97 -2 -2 -44 -13 -93 -24 -84 -19 -544 -125 -591 -136
-18 -4 -23 1 -26 23 -3 15 -27 119 -53 232 -26 113 -67 288 -90 390 -24 102
-53 229 -66 283 -13 59 -19 101 -13 106 5 4 74 23 154 41 80 18 228 52 330 75
102 24 192 43 200 42 11 -2 27 -53 57 -187z m-1020 -147 c65 -26 119 -47 120
-48 3 -1 166 -474 221 -636 l25 -77 -57 -100 c-40 -70 -64 -101 -79 -105 -12
-2 -127 -41 -255 -85 -159 -55 -234 -77 -237 -69 -3 7 -48 138 -101 292 -94
275 -157 459 -215 623 -21 61 -25 84 -16 87 6 3 111 39 232 80 120 42 221 78
224 80 8 9 19 5 138 -42z"/>
<path d="M6746 14976 c-49 -11 -91 -26 -93 -32 -3 -9 134 -631 141 -641 2 -3
209 47 214 52 3 2 -29 148 -69 325 -57 248 -77 320 -89 319 -8 -1 -55 -11
-104 -23z"/>
<path d="M5878 14716 c-49 -17 -88 -36 -88 -42 0 -9 117 -353 197 -581 l14
-41 87 29 c48 16 92 33 99 37 8 5 0 41 -32 132 -24 69 -72 208 -107 309 -35
102 -68 185 -73 187 -6 1 -49 -12 -97 -30z"/>
<path d="M4306 15211 c-3 -5 3 -29 14 -55 32 -70 62 -212 67 -309 l4 -87 -53
-53 c-30 -28 -82 -67 -116 -85 -73 -39 -79 -47 -56 -73 31 -34 74 -24 221 55
62 33 110 -5 96 -75 -4 -23 -15 -35 -39 -45 -29 -12 -62 -49 -52 -59 2 -2 79
40 172 93 l170 97 -42 3 c-33 2 -42 7 -42 21 0 10 -9 40 -21 65 -24 54 -15 76
30 76 29 0 51 16 51 37 0 7 -13 27 -30 45 -16 17 -30 35 -30 40 0 38 -106 138
-130 123 -14 -9 -12 -42 4 -68 7 -12 16 -41 20 -64 6 -39 4 -43 -14 -43 -24 0
-30 12 -86 177 -28 84 -47 122 -75 152 -37 41 -53 49 -63 32z"/>
<path d="M7520 14997 c-36 -4 -93 -5 -128 -2 -58 5 -63 4 -58 -12 8 -30 71
-297 140 -603 l21 -95 46 -6 c26 -4 56 -12 67 -18 37 -20 46 -12 19 17 l-27
28 -1 300 c-1 164 -4 322 -7 349 l-7 50 -65 -8z"/>
<path d="M11760 14960 c-19 -11 -46 -19 -60 -20 -27 0 -50 -16 -50 -35 0 -6
100 -56 222 -110 l221 -99 35 -77 35 -78 47 24 c58 29 64 44 44 95 l-16 40
-20 -25 c-32 -41 -41 -31 -33 39 l6 64 -41 7 c-35 6 -42 11 -47 37 -4 21 -15
34 -37 43 -17 7 -41 24 -54 38 -13 13 -50 32 -85 42 -34 10 -66 22 -71 27 -16
14 -59 8 -96 -12z"/>
<path d="M4841 14808 c-1 -48 -4 -58 -21 -63 -11 -3 -27 -13 -35 -21 -20 -20
-7 -43 53 -101 60 -56 91 -61 164 -28 l58 26 32 -24 c42 -30 127 -50 135 -31
9 24 -2 49 -22 52 -12 2 -34 13 -50 26 l-29 23 62 7 c41 5 62 11 62 20 0 21
-20 32 -78 46 -54 12 -82 4 -82 -24 0 -7 -13 -25 -29 -40 -29 -27 -29 -27 -36
-7 -3 12 -19 29 -33 38 -31 20 -109 98 -134 133 -17 25 -17 25 -17 -32z"/>
<path d="M3347 14568 c7 -41 27 -80 48 -98 9 -7 24 -27 32 -44 17 -32 53 -218
52 -271 0 -42 -44 -89 -113 -121 l-58 -27 6 -46 c3 -25 10 -47 15 -49 17 -6
154 -107 203 -149 27 -24 52 -43 57 -43 4 0 14 38 21 84 7 47 16 89 19 94 3 5
80 63 171 129 l166 120 67 -9 c83 -11 97 -1 122 90 16 57 22 65 64 89 25 15
48 28 50 30 2 1 -1 15 -8 29 -12 28 -17 28 -126 9 -41 -8 -56 5 -62 54 -5 37
-8 41 -34 41 -18 0 -47 14 -75 35 -50 39 -67 40 -72 7 -2 -12 -15 -30 -28 -41
-43 -34 -30 -69 39 -111 59 -35 103 -90 73 -90 -7 0 -33 9 -57 20 -73 33 -152
20 -199 -32 -31 -34 -55 -30 -47 9 4 22 2 23 -22 18 -24 -5 -29 -1 -49 37 -13
24 -38 68 -57 98 -23 35 -35 67 -35 90 0 48 -13 64 -52 66 -18 0 -52 4 -75 8
l-43 8 7 -34z"/>
<path d="M4493 14407 l-281 -162 -24 -83 c-22 -78 -24 -82 -48 -78 -14 3 -50
8 -80 11 l-55 5 -164 -120 c-91 -66 -166 -122 -168 -124 -2 -2 -10 -39 -17
-82 l-14 -79 59 -81 c60 -84 75 -93 148 -94 22 -1 47 -30 174 -206 171 -236
174 -246 86 -254 -51 -5 -61 -10 -124 -67 -39 -35 -72 -63 -75 -62 -3 0 -112
124 -243 275 l-238 274 -47 0 c-26 0 -69 3 -97 6 l-50 6 -95 -83 c-103 -89
-107 -98 -109 -211 l-1 -48 -74 0 -74 0 -184 -198 c-222 -238 -221 -236 -216
-424 2 -68 7 -132 12 -143 7 -16 3 -14 -21 8 -25 23 -37 27 -89 26 -32 -1 -82
-4 -111 -7 l-52 -7 -74 -106 -74 -106 9 -58 c5 -32 7 -63 5 -69 -3 -7 -32 -17
-66 -24 -67 -14 -62 -9 -167 -162 l-47 -70 21 -71 c12 -39 19 -75 17 -80 -3
-4 -31 -13 -63 -19 -31 -7 -64 -16 -73 -21 -25 -13 -273 -448 -281 -493 -5
-25 0 -76 13 -145 25 -135 32 -154 70 -202 17 -21 28 -39 25 -39 -3 0 -35 12
-71 26 l-65 26 -83 -33 c-45 -18 -87 -36 -93 -41 -6 -4 -53 -118 -103 -252
l-93 -243 37 -72 c39 -78 45 -83 190 -133 l61 -22 90 36 89 36 25 66 c13 36
27 65 30 64 4 -2 61 -23 127 -47 113 -42 120 -45 102 -60 -17 -15 -99 -211
-99 -239 0 -12 67 -152 73 -152 2 0 72 -27 155 -59 l153 -60 91 37 92 37 83
215 c92 238 97 267 63 365 -11 32 -20 64 -20 70 0 7 29 18 67 27 l67 14 64
109 64 110 -17 60 c-10 33 -19 67 -22 76 -4 14 10 20 71 35 l76 18 64 109 64
110 -24 76 c-13 42 -31 82 -41 89 -10 7 -89 54 -175 104 -87 50 -158 92 -158
94 0 2 80 -36 178 -85 l178 -89 92 21 92 22 115 165 c114 163 115 165 110 210
-12 96 -17 111 -35 123 -11 6 -20 15 -20 19 0 5 44 8 99 8 l99 0 86 94 86 94
0 76 0 76 73 0 72 0 88 94 c80 87 87 98 87 135 0 39 1 41 31 41 25 0 69 33
257 197 206 178 228 200 235 236 8 38 10 39 44 34 32 -6 47 3 204 116 158 115
169 124 175 160 7 38 8 39 41 32 30 -5 59 9 291 143 141 82 271 156 287 165
26 13 33 27 53 95 l23 81 -115 198 c-110 189 -118 199 -170 231 -30 17 -65 32
-79 32 -13 0 -39 3 -56 6 -26 6 -29 9 -19 21 7 8 22 47 35 86 l22 71 -75 131
c-42 71 -79 134 -84 139 -5 4 -42 16 -83 26 -41 10 -83 20 -93 24 -13 3 -113
-49 -301 -157z m434 -80 c40 -70 73 -131 73 -135 -1 -8 -190 -116 -194 -110
-2 1 -13 22 -26 46 -13 23 -28 42 -33 42 -12 0 -137 -74 -137 -82 0 -3 14 -31
32 -62 37 -65 14 -59 313 -76 110 -7 203 -15 206 -18 4 -4 56 -93 116 -198 95
-164 108 -192 94 -201 -9 -5 -124 -72 -256 -148 -132 -75 -254 -146 -270 -156
l-31 -18 -52 92 c-29 51 -66 115 -82 144 l-31 52 68 37 c37 21 84 48 103 61
19 13 38 23 42 23 3 0 21 -25 38 -55 l32 -55 56 31 c32 18 62 36 69 41 11 9
-2 39 -62 140 -9 15 -45 20 -245 33 -129 9 -238 17 -242 18 -16 4 -217 362
-208 371 18 18 535 315 544 313 5 -2 42 -60 83 -130z m-771 -404 l57 -76 -33
-27 -33 -27 188 -259 c103 -142 191 -263 196 -268 4 -5 23 1 42 13 l35 22 56
-77 c30 -43 53 -81 50 -85 -2 -4 -77 -60 -166 -124 l-162 -117 -20 28 c-12 15
-38 52 -59 80 l-37 53 31 24 c23 18 29 29 23 40 -5 8 -92 129 -194 269 l-185
255 -35 -23 c-19 -13 -37 -20 -40 -16 -4 4 -30 40 -60 80 -50 69 -52 74 -34
87 11 7 84 60 164 118 80 59 148 106 152 107 4 0 33 -35 64 -77z m193 -155
c35 -61 117 -118 173 -119 18 0 51 -4 73 -8 l40 -7 -30 -16 c-24 -13 -35 -29
-48 -72 -10 -31 -20 -56 -22 -56 -8 0 -218 295 -223 313 -8 31 6 18 37 -35z
m-725 -710 c147 -170 269 -308 272 -308 3 0 61 48 130 108 69 59 129 108 133
110 4 1 36 -29 71 -69 l63 -71 -24 -23 c-13 -12 -116 -103 -228 -200 -167
-144 -207 -174 -215 -163 -6 8 -97 113 -202 234 -227 261 -454 523 -472 546
-11 13 0 27 80 96 87 76 94 80 109 64 9 -9 136 -155 283 -324z m-247 -359
c210 -195 382 -357 382 -360 2 -11 -161 -180 -170 -177 -4 2 -63 55 -130 118
l-122 115 -74 -80 -74 -80 128 -122 128 -121 -74 -79 c-41 -43 -80 -84 -86
-91 -9 -10 -64 35 -261 220 -138 128 -285 266 -328 306 l-78 72 1 127 c2 147
-17 113 180 321 69 74 137 147 150 163 13 16 29 28 35 26 6 -2 183 -163 393
-358z m-725 -656 c167 -158 340 -323 386 -368 l83 -80 -112 -160 c-62 -88
-113 -161 -114 -163 -3 -4 -965 473 -965 480 0 10 141 208 149 208 3 0 20 -8
36 -18 17 -10 93 -51 170 -92 77 -40 145 -76 150 -80 6 -4 69 -38 140 -75 72
-37 149 -79 173 -92 24 -13 41 -19 37 -13 -3 5 -138 129 -300 275 l-294 266
70 99 c39 55 75 100 80 100 5 0 145 -129 311 -287z m-548 -644 c144 -83 340
-196 436 -252 96 -55 181 -106 189 -112 11 -11 3 -31 -48 -118 l-62 -105 -70
39 c-38 22 -103 60 -145 84 -42 25 -80 45 -84 45 -9 0 -110 -165 -110 -178 0
-6 169 -107 260 -156 19 -10 36 -20 38 -21 3 -3 -105 -195 -118 -208 -10 -11
-48 9 -445 240 l-340 198 -22 110 c-13 61 -21 122 -20 136 5 42 250 459 266
453 8 -2 132 -73 275 -155z m-162 -949 l267 -103 37 -109 36 -108 -83 -215
c-46 -118 -88 -215 -93 -215 -14 0 -284 105 -293 113 -10 10 79 227 93 227 7
0 34 -9 60 -20 26 -11 48 -19 50 -18 5 6 44 114 44 124 0 6 -57 33 -127 59
-71 27 -202 77 -293 112 -90 35 -167 63 -171 63 -3 0 -28 -56 -54 -125 -26
-69 -51 -125 -54 -125 -5 0 -192 71 -199 76 -2 2 19 60 46 131 27 70 67 173
87 228 21 55 41 107 46 116 8 15 28 10 171 -46 90 -34 283 -109 430 -165z"/>
<path d="M2881 12663 l-72 -78 108 -102 c59 -56 113 -102 119 -103 13 0 144
134 144 148 0 11 -202 204 -219 210 -5 2 -41 -32 -80 -75z"/>
<path d="M1812 11149 c-29 -51 -51 -93 -50 -94 8 -8 254 -147 262 -148 12 -3
116 176 108 184 -10 10 -255 149 -262 149 -3 0 -29 -41 -58 -91z"/>
<path d="M5295 14445 c-22 -14 -61 -32 -87 -41 -58 -19 -73 -35 -59 -62 11
-20 11 -20 62 -1 29 11 81 23 116 26 73 7 80 15 63 68 -14 43 -37 45 -95 10z"/>
<path d="M12588 14431 c-15 -9 -55 -59 -90 -111 -59 -88 -66 -95 -100 -98 -47
-4 -148 44 -207 98 -24 22 -45 39 -46 38 -4 -4 -35 -80 -35 -84 0 -2 6 -4 13
-4 6 0 30 -5 51 -11 46 -13 144 -106 165 -157 17 -41 6 -65 -56 -129 -68 -68
-70 -124 -8 -157 20 -11 41 -29 47 -40 33 -65 259 -265 324 -286 49 -16 77 2
149 95 75 97 100 107 110 42 8 -49 -2 -76 -42 -117 -41 -42 -103 -121 -103
-130 0 -5 -20 -29 -45 -54 -25 -26 -45 -55 -45 -66 0 -22 10 -26 27 -9 7 7 20
5 43 -10 18 -11 62 -27 97 -37 l64 -17 -3 -45 c-3 -44 -4 -46 -48 -60 -63 -21
-180 -140 -180 -182 0 -25 7 -33 43 -51 23 -12 89 -70 147 -129 61 -62 128
-120 160 -138 40 -23 58 -40 66 -64 10 -32 64 -78 90 -78 7 0 15 9 19 19 13
41 168 38 275 -5 37 -15 37 -15 33 -67 -6 -75 -28 -113 -85 -144 -26 -14 -48
-32 -48 -40 0 -27 28 -81 51 -97 35 -24 136 -167 167 -235 9 -20 28 -52 43
-71 14 -19 33 -48 42 -65 9 -16 28 -45 44 -64 l29 -33 57 18 c31 9 58 16 60
13 2 -2 13 -40 23 -84 l20 -79 57 -15 c76 -20 76 -39 -4 -120 -33 -35 -59 -63
-57 -64 78 -39 83 -44 124 -119 29 -52 49 -109 65 -179 13 -56 29 -104 36
-106 6 -2 21 5 32 16 26 26 28 90 6 171 -8 30 -15 56 -15 58 0 10 52 -2 62
-15 29 -36 92 -93 105 -93 7 0 15 17 19 40 5 33 11 41 33 46 14 3 31 7 37 9 6
2 26 38 43 80 24 57 31 88 29 123 l-3 47 -62 3 c-54 3 -63 6 -63 22 0 15 8 19
38 22 l37 3 0 55 c0 55 0 55 -33 58 -22 2 -48 -5 -75 -21 -28 -17 -60 -26 -97
-27 -103 -5 -100 -6 -100 49 0 41 -4 51 -20 56 -20 6 -23 15 -34 85 -3 19 -9
47 -12 63 -5 21 -3 27 11 27 29 0 70 -52 89 -113 13 -41 27 -65 50 -82 42 -32
51 -31 66 5 14 35 56 50 138 50 42 0 58 5 76 23 13 13 44 40 68 60 45 37 46
37 139 37 74 0 100 -4 122 -18 30 -20 26 -32 -9 -32 -13 0 -25 -4 -29 -10 -6
-10 48 -125 64 -134 18 -12 44 -121 42 -180 -2 -67 5 -76 61 -76 55 0 56 -17
2 -40 -26 -11 -72 -36 -103 -54 -31 -19 -72 -39 -93 -46 -20 -6 -39 -17 -42
-25 -3 -8 -27 -20 -53 -29 -65 -19 -179 -72 -228 -106 -22 -14 -85 -50 -140
-79 -55 -29 -112 -65 -127 -79 -25 -25 -27 -31 -18 -63 12 -44 28 -58 108 -99
47 -24 66 -39 76 -65 20 -46 54 -66 107 -63 l44 3 3 -40 c2 -22 8 -44 13 -50
5 -5 9 -15 9 -23 0 -19 -38 -6 -71 24 -14 13 -28 24 -31 24 -11 0 -17 -104
-11 -177 6 -68 7 -73 29 -73 13 0 24 4 24 10 0 5 17 21 38 35 96 64 134 93
157 125 39 53 30 107 -17 95 -27 -7 -38 2 -58 53 -12 30 -11 35 11 58 20 21
29 24 61 19 44 -8 129 8 218 40 161 58 258 84 294 78 42 -7 45 -15 11 -31 -13
-6 -34 -30 -45 -53 -26 -50 -16 -63 42 -54 43 6 58 -11 58 -67 0 -19 9 -51 20
-73 11 -22 20 -52 20 -68 0 -15 -9 -45 -20 -67 -38 -74 -23 -100 57 -100 38 0
53 -4 53 -13 0 -13 -60 -37 -91 -37 -8 0 -41 -13 -74 -30 -33 -16 -68 -30 -77
-30 -33 0 -202 -78 -245 -111 -33 -27 -56 -32 -186 -45 -59 -6 -68 -9 -73 -29
-4 -17 -15 -24 -45 -29 l-39 -6 0 -55 c0 -51 2 -57 31 -74 17 -11 48 -22 68
-26 20 -4 48 -18 64 -33 l27 -26 -30 -12 c-25 -11 -30 -19 -30 -47 0 -42 12
-47 118 -47 63 0 76 3 96 23 13 13 25 30 28 38 4 11 11 9 32 -11 27 -24 33
-25 149 -24 96 1 137 6 193 23 56 17 90 21 165 19 l94 -3 -47 -22 c-25 -11
-51 -30 -57 -41 -15 -29 -14 -132 3 -164 8 -14 19 -66 25 -115 19 -147 21
-151 47 -157 14 -4 24 -14 24 -25 0 -19 -60 -43 -145 -57 -22 -4 -57 -15 -77
-25 -27 -14 -59 -19 -115 -19 -59 0 -87 -5 -115 -20 -26 -14 -54 -19 -100 -18
-53 1 -74 -4 -124 -30 -32 -17 -89 -45 -126 -61 -66 -30 -68 -31 -56 -56 9
-20 9 -34 0 -59 -32 -88 -2 -125 145 -175 120 -41 153 -41 200 3 34 31 36 36
26 57 -20 40 -45 151 -39 174 7 26 53 42 70 25 7 -7 12 -68 14 -154 l4 -144
36 -6 c69 -11 199 -6 242 9 55 19 82 19 153 -3 80 -25 82 -30 52 -88 -24 -47
-24 -51 -10 -98 10 -34 15 -95 15 -199 0 -140 1 -149 20 -154 26 -7 27 -43 1
-43 -10 0 -65 -12 -122 -26 -98 -25 -112 -26 -234 -19 -71 5 -173 9 -225 9
l-95 1 -6 -90 c-3 -49 -13 -129 -23 -177 -11 -47 -16 -93 -13 -102 8 -21 80
-56 115 -56 37 0 42 15 42 132 0 99 12 141 38 136 15 -3 17 -17 17 -125 0 -67
3 -125 7 -128 15 -15 138 -34 224 -35 97 0 202 -27 237 -60 18 -17 18 -19 -4
-61 -18 -36 -24 -67 -29 -164 -5 -99 -10 -126 -28 -155 -29 -46 -29 -96 -1
-105 19 -6 20 -12 14 -63 -4 -32 -8 -57 -8 -58 -9 -4 -262 19 -332 30 -106 17
-296 28 -348 19 -35 -5 -36 -8 -63 -87 -14 -44 -40 -114 -56 -155 -16 -41 -27
-80 -24 -88 4 -8 23 -13 55 -13 28 0 62 -5 76 -12 22 -10 27 -9 40 8 12 17 43
107 60 174 15 61 37 88 78 94 22 4 42 4 45 1 9 -9 -39 -191 -70 -269 -16 -38
-27 -70 -26 -71 2 -1 56 -6 121 -12 99 -9 128 -16 182 -42 68 -33 125 -89 125
-121 0 -11 -16 -38 -36 -59 -29 -33 -37 -51 -45 -107 -5 -36 -11 -69 -14 -73
-2 -4 -11 -39 -19 -78 -8 -39 -24 -89 -35 -111 l-21 -41 34 -11 c18 -6 46 -24
62 -41 l29 -31 -50 5 c-27 3 -81 12 -120 20 -38 8 -122 23 -185 32 -64 10
-129 25 -147 36 -29 16 -150 45 -158 37 -2 -2 1 -64 5 -138 5 -74 9 -172 10
-217 0 -76 2 -83 20 -83 26 0 204 -93 258 -135 24 -19 57 -37 73 -40 16 -4 29
-10 29 -13 -1 -4 -24 -32 -51 -62 -76 -81 -92 -106 -133 -205 -21 -49 -48
-114 -62 -143 -34 -73 -32 -78 26 -86 54 -7 55 -8 40 -37 -18 -32 -107 -27
-167 11 -26 17 -54 30 -62 30 -9 0 -34 11 -56 25 -22 13 -47 24 -55 24 -8 0
-33 -24 -55 -52 -23 -29 -63 -68 -89 -87 -27 -19 -84 -70 -128 -112 l-80 -77
34 -15 c18 -7 64 -23 102 -34 68 -21 68 -21 73 -1 4 13 11 18 20 15 8 -3 21
-6 29 -6 17 0 18 -24 2 -49 -10 -16 -8 -29 9 -68 12 -26 24 -55 27 -64 3 -12
21 -19 55 -24 28 -4 51 -10 51 -13 0 -4 -28 -14 -62 -22 -61 -15 -63 -16 -79
-60 -9 -24 -26 -51 -38 -59 -12 -8 -35 -43 -51 -78 -16 -34 -34 -63 -40 -63
-19 0 -40 -66 -40 -125 0 -50 4 -60 31 -87 l30 -31 -22 -23 c-30 -32 -42 -30
-87 10 -21 19 -69 51 -108 72 -172 91 -217 114 -228 114 -7 0 -43 20 -80 45
-38 25 -76 45 -85 45 -9 0 -38 14 -66 30 -27 16 -53 30 -57 30 -35 1 32 -51
275 -215 l282 -190 22 -100 c12 -55 23 -110 23 -123 0 -12 -30 -67 -67 -122
-50 -73 -75 -101 -93 -104 -14 -3 -81 -14 -150 -26 l-125 -22 -72 -71 -73 -71
25 -26 c24 -25 25 -32 25 -146 l0 -119 -83 -83 -82 -82 -57 0 -56 0 -7 -61
c-6 -47 -14 -68 -36 -94 -25 -29 -37 -34 -94 -40 l-65 -7 0 -57 0 -56 -83 -83
-82 -82 -68 0 c-61 0 -67 -2 -67 -20 0 -12 7 -34 15 -49 12 -25 13 -31 0 -41
-11 -9 -24 -7 -61 9 -78 35 -106 24 -84 -33 10 -28 10 -28 -17 -22 -16 4 -54
10 -86 13 -57 5 -59 5 -55 -18 2 -20 9 -24 46 -27 34 -3 43 -7 40 -20 -3 -14
-17 -17 -83 -20 -112 -3 -122 -6 -135 -47 -10 -31 -14 -34 -38 -28 -41 10 -90
62 -108 115 -8 26 -24 54 -35 61 -10 8 -25 30 -32 50 l-12 36 -91 -69 -90 -69
-75 10 c-40 5 -107 14 -148 20 -41 5 -80 14 -87 19 -8 8 -13 6 -18 -6 -10 -27
-7 -32 25 -39 35 -8 49 -36 49 -100 0 -62 12 -86 75 -155 30 -33 55 -63 56
-67 1 -5 2 -58 4 -119 l3 -111 -34 -17 c-19 -9 -37 -16 -39 -16 -3 0 -2 18 1
40 6 36 4 40 -14 40 -11 0 -45 -20 -76 -44 -31 -24 -77 -49 -102 -55 -43 -11
-47 -15 -76 -79 -77 -170 -77 -171 -17 -127 88 63 167 115 192 124 16 6 53 11
83 11 50 0 58 -3 88 -35 36 -38 58 -39 87 -3 8 11 30 23 49 27 57 11 59 31 12
100 -22 33 -37 63 -33 66 13 7 88 -21 118 -45 34 -27 66 -25 99 5 15 14 31 25
36 25 5 0 38 18 73 41 l65 41 0 75 c0 74 0 76 39 112 21 20 59 54 86 75 26 22
51 52 57 67 8 22 17 28 55 34 28 4 55 16 70 31 29 29 56 30 91 5 15 -10 45
-24 67 -30 34 -9 42 -8 60 9 12 11 31 20 43 20 34 0 109 82 166 182 l52 93 71
5 c39 3 75 8 78 12 4 4 -2 27 -14 51 -15 31 -19 54 -15 78 7 40 64 139 79 139
5 -1 57 -20 114 -44 l104 -43 43 49 c66 74 78 102 79 188 1 72 3 79 49 158 53
89 126 165 182 188 35 15 37 14 63 -10 15 -14 38 -26 52 -26 31 0 74 43 90 90
13 37 46 81 120 164 26 28 54 66 63 83 9 18 21 33 27 33 22 0 109 105 120 144
10 35 8 44 -20 98 -17 32 -31 64 -31 71 0 7 22 45 50 83 27 38 81 115 120 172
84 121 120 149 208 158 54 6 62 9 62 28 0 12 12 44 25 71 14 28 25 56 25 63 0
6 4 12 9 12 5 0 17 17 26 38 10 20 32 58 49 84 60 90 114 193 126 238 11 42
11 45 -12 62 -72 54 -78 60 -78 89 0 35 39 158 56 179 8 9 20 36 29 60 19 56
38 70 89 70 29 0 54 9 84 30 24 16 46 30 50 32 4 2 17 30 30 63 13 33 34 83
47 110 13 28 29 69 35 93 6 23 19 57 30 75 10 17 32 69 49 115 l30 82 -40 46
c-21 25 -42 56 -45 70 -11 44 2 148 26 200 12 27 30 86 40 132 9 45 25 91 34
101 9 10 44 24 76 30 l60 12 19 67 c11 37 22 104 25 148 8 110 39 227 75 281
18 27 27 51 24 64 -8 28 -80 79 -112 79 -57 0 -65 26 -45 138 11 59 14 114 10
173 -7 96 3 138 35 146 11 3 51 20 88 38 l68 33 7 78 c3 44 9 176 13 295 l6
216 -64 12 c-107 20 -99 11 -100 109 -1 48 -4 134 -8 192 -8 126 -1 185 25
206 10 8 44 28 75 43 66 35 85 67 64 108 -8 15 -15 36 -15 45 0 9 -4 20 -10
23 -6 4 -10 70 -10 166 0 138 -3 165 -19 198 -26 50 -45 64 -81 59 -45 -7 -87
42 -101 118 -6 32 -19 97 -29 144 -10 47 -21 113 -25 147 l-7 62 41 25 c22 14
52 46 66 71 23 38 25 49 16 77 -5 18 -15 71 -21 118 -14 105 -26 153 -52 208
-17 35 -19 55 -15 102 8 75 -2 85 -78 75 -40 -5 -69 -2 -105 10 l-50 17 1 66
c0 48 -5 80 -20 112 -12 27 -21 66 -21 97 0 29 -7 70 -16 92 -16 40 -16 41 20
107 34 65 35 69 20 92 -10 16 -18 57 -22 111 -5 77 -8 89 -32 111 -19 18 -29
39 -33 73 -4 27 -16 60 -27 74 -13 17 -17 33 -14 53 7 31 1 34 -71 45 -148 22
-165 27 -170 49 -3 11 -9 39 -13 62 -5 22 -25 64 -45 92 -20 29 -39 63 -43 75
-3 12 -16 32 -28 45 -17 20 -21 36 -21 98 0 72 1 75 33 100 17 14 32 33 32 43
0 10 -16 46 -37 80 -35 59 -62 76 -79 50 -7 -11 -95 -52 -100 -46 -10 10 22
86 47 112 31 33 39 79 14 88 -8 4 -26 30 -41 59 -14 29 -42 70 -62 91 -31 32
-42 37 -79 37 -61 0 -110 23 -131 61 -28 52 -62 88 -107 115 -37 21 -44 31
-50 67 -4 23 -16 55 -28 70 l-20 29 33 95 c31 88 32 97 17 108 -10 7 -17 22
-17 33 0 29 -74 104 -130 132 -25 13 -69 38 -99 57 l-54 34 6 65 c5 73 -2 78
-66 48 -32 -15 -38 -15 -86 1 -28 9 -77 36 -109 60 -31 23 -71 49 -88 58 -30
16 -32 15 -42 -8 -7 -16 -25 -28 -50 -35 -57 -15 -92 -46 -92 -80 0 -25 4 -29
33 -32 29 -3 32 -6 32 -38 0 -43 -28 -60 -102 -60 -59 0 -64 5 -90 92 -11 40
-29 65 -85 120 -38 37 -83 75 -99 83 -16 9 -29 20 -29 25 0 28 236 199 277
200 15 0 27 -11 40 -37 13 -28 25 -39 45 -41 23 -3 30 3 49 39 11 23 24 69 26
100 6 56 5 58 -21 65 -21 5 -31 1 -47 -20 -33 -41 -63 -32 -70 22 -7 52 -59
112 -98 112 -14 0 -45 7 -69 17 -37 14 -42 19 -37 37 19 58 13 69 -55 103 -36
18 -69 34 -74 36 -6 2 1 21 14 42 l24 38 -50 -6 c-63 -7 -117 15 -177 75 -165
162 -265 242 -285 229 -5 -3 -21 -25 -36 -49 -50 -81 -89 -30 -42 54 14 26 26
48 26 50 0 11 -59 0 -82 -15z m1622 -1750 c0 -4 -5 -22 -11 -40 -22 -62 13
-107 62 -80 22 11 22 11 16 -71 l-5 -82 26 7 c34 8 33 7 42 47 6 26 8 19 9
-39 1 -68 3 -73 36 -104 19 -19 35 -40 35 -49 0 -22 -75 -82 -135 -109 -27
-12 -57 -29 -67 -38 -38 -34 -141 -84 -147 -71 -1 5 2 29 8 53 14 55 14 132 1
140 -5 3 -10 33 -10 65 0 58 -1 61 -46 102 -70 65 -107 82 -171 74 -65 -8 -70
8 -20 58 32 31 34 32 63 18 30 -14 34 -13 100 27 38 23 78 55 89 71 18 27 25
30 73 30 28 0 52 -4 52 -9z"/>
<path d="M10388 14379 c-10 -5 -18 -21 -18 -34 0 -36 15 -30 27 10 6 19 10 35
10 35 -1 0 -10 -5 -19 -11z"/>
<path d="M5400 14300 c-14 -11 -41 -20 -60 -20 -52 -2 -69 -12 -93 -55 -13
-23 -39 -49 -60 -60 -36 -19 -50 -45 -24 -45 6 0 50 -23 96 -50 l84 -49 92
-161 c107 -187 111 -193 121 -156 4 19 13 26 30 26 13 0 24 -4 24 -10 0 -5 9
-10 20 -10 19 0 19 2 6 23 -7 12 -55 144 -106 292 -51 149 -95 275 -99 282 -4
8 -13 6 -31 -7z"/>
<path d="M11983 14239 c-25 -9 -27 -16 -14 -37 6 -10 12 -7 25 13 21 32 19 36
-11 24z"/>
<path d="M9396 14095 c-11 -8 -31 -15 -45 -15 -59 -1 37 -28 120 -33 71 -5 77
-5 39 4 -25 6 -55 21 -67 35 -26 28 -23 27 -47 9z"/>
<path d="M9790 14059 c-11 -8 -12 -12 -2 -16 7 -3 12 -24 12 -53 0 -48 1 -49
38 -59 78 -21 102 -24 117 -11 21 17 19 30 -6 30 -12 0 -47 26 -83 59 -48 47
-65 58 -76 50z"/>
<path d="M10280 14000 c-13 -9 -12 -13 5 -26 29 -22 58 -37 53 -27 -31 67 -33
69 -58 53z"/>
<path d="M7035 13963 c-33 -8 -70 -16 -81 -19 -16 -3 -24 -14 -29 -41 -12 -67
-75 -251 -93 -272 -17 -21 -17 -21 -94 49 -42 38 -79 70 -82 70 -3 0 -6 -23
-6 -51 0 -38 -7 -65 -29 -103 -18 -31 -39 -97 -55 -170 -44 -195 -88 -304
-136 -334 -11 -7 -20 -18 -20 -24 0 -7 -29 -73 -64 -148 -59 -124 -110 -262
-152 -415 l-16 -60 -26 31 c-15 16 -39 45 -54 64 l-27 35 0 -40 c-1 -24 7 -52
19 -70 23 -35 27 -60 4 -27 -8 12 -20 22 -25 22 -13 0 -2 -55 17 -90 34 -63
199 -528 190 -537 -6 -6 -91 117 -119 173 -29 58 -50 79 -72 70 -17 -6 -21
-46 -5 -46 6 0 10 -24 9 -52 l0 -53 -22 55 -22 55 -3 -137 c-2 -130 -4 -138
-22 -138 -18 0 -20 -7 -21 -62 l-2 -63 -9 55 c-22 132 -42 143 -54 31 l-9 -80
-170 131 c-289 221 -349 273 -374 322 -13 24 -82 103 -153 176 -122 123 -133
138 -178 233 -26 56 -58 136 -70 177 -12 41 -32 95 -45 120 -13 25 -26 68 -30
95 -15 114 -45 207 -45 138 0 -25 -7 -36 -35 -53 -44 -27 -65 -57 -65 -92 0
-18 -5 -28 -15 -28 -8 0 -15 9 -15 20 0 28 -12 25 -57 -12 -87 -73 -153 -112
-191 -112 -33 -1 -37 -4 -40 -31 -3 -19 -17 -41 -39 -60 l-35 -30 1 -129 c2
-149 -4 -153 -56 -37 -19 42 -37 78 -39 80 -8 8 -84 -73 -84 -89 0 -8 16 -60
35 -115 33 -92 36 -113 44 -265 5 -101 4 -211 -2 -283 -7 -84 -7 -143 1 -201
13 -101 2 -164 -53 -306 -21 -52 -41 -105 -46 -117 -11 -29 -31 -21 -53 20
l-17 32 6 -29 6 -29 -27 18 c-27 17 -27 17 -21 -6 14 -58 19 -129 9 -129 -6 0
-13 17 -15 38 -3 35 -4 35 -5 -8 -1 -45 1 -58 31 -195 9 -39 18 -98 22 -130 3
-33 9 -85 14 -115 6 -30 15 -115 22 -188 6 -73 15 -135 20 -138 5 -3 9 -25 9
-49 0 -41 -2 -44 -36 -55 -19 -7 -38 -18 -41 -26 -3 -8 -9 -14 -15 -14 -15 0
-258 -222 -313 -286 -128 -149 -242 -319 -327 -489 -76 -152 -85 -164 -168
-230 -41 -32 -72 -66 -78 -84 l-11 -31 71 36 c38 19 72 33 75 30 13 -13 -25
-72 -104 -158 -46 -51 -121 -139 -166 -195 -57 -73 -84 -100 -92 -93 -9 7 -21
-10 -43 -61 -17 -39 -66 -127 -108 -197 -88 -145 -131 -232 -140 -282 -4 -19
-13 -42 -21 -51 -17 -20 -7 -49 16 -49 13 0 33 32 69 105 28 58 53 105 56 105
2 0 -18 -64 -45 -142 -27 -79 -49 -151 -49 -160 0 -9 -11 -38 -25 -64 -14 -26
-25 -59 -25 -74 0 -15 -7 -33 -15 -40 -8 -7 -20 -30 -26 -52 -12 -46 -52 -114
-126 -214 -28 -40 -55 -85 -59 -100 -7 -27 -1 -24 65 35 40 35 81 82 92 103
13 25 39 51 74 73 29 19 56 44 60 55 3 11 12 20 19 20 7 0 23 11 36 25 14 14
51 45 84 68 32 23 70 53 83 66 28 29 31 9 3 -22 -26 -27 -80 -134 -80 -157 0
-10 -6 -23 -14 -29 -8 -6 -24 -35 -36 -64 -21 -48 -70 -156 -185 -402 -83
-178 -122 -276 -193 -490 -74 -222 -221 -623 -253 -689 -10 -22 -19 -50 -19
-64 0 -20 4 -23 27 -20 24 3 34 16 73 93 25 50 65 122 89 160 47 75 303 437
305 433 1 -2 0 -45 -2 -97 -4 -81 -7 -94 -23 -98 -15 -4 -19 -15 -20 -57 -5
-231 -9 -293 -23 -378 -19 -118 -24 -195 -31 -500 -5 -203 -3 -237 9 -232 8 3
19 20 26 37 7 18 44 108 83 201 l72 170 3 -105 c9 -350 21 -697 26 -776 6 -91
34 -242 77 -421 21 -85 24 -91 39 -77 15 14 18 13 32 -2 31 -35 85 -160 152
-354 34 -97 205 -444 282 -574 33 -55 83 -148 111 -207 28 -58 60 -111 71
-117 11 -6 39 -45 63 -86 24 -42 45 -73 46 -68 2 5 -18 108 -43 229 -46 214
-67 394 -46 394 5 0 13 -11 16 -25 16 -64 132 -285 149 -285 5 0 7 14 5 32
l-5 32 24 -30 c13 -16 33 -47 44 -69 20 -39 48 -81 165 -250 30 -44 60 -99 67
-122 9 -36 15 -43 35 -43 l24 0 -8 153 c-21 365 -3 812 38 949 21 72 46 57
295 -186 l83 -80 -45 -28 c-47 -29 -67 -36 -47 -16 7 7 12 16 12 21 0 4 -25
-13 -55 -39 -30 -26 -55 -52 -55 -56 0 -5 11 -13 25 -20 13 -6 36 -28 50 -49
38 -59 65 -72 141 -70 76 2 145 -26 202 -79 30 -28 32 -33 19 -48 -56 -65
-109 -146 -97 -150 10 -4 76 29 130 63 19 13 60 31 90 40 30 10 59 21 65 26 5
5 26 9 47 9 32 0 39 -4 44 -25 3 -14 10 -22 15 -19 21 13 6 -106 -25 -196 -52
-150 -76 -198 -152 -300 -39 -52 -68 -96 -63 -98 4 -2 22 4 39 13 17 9 58 17
91 19 40 2 64 8 72 19 7 9 46 34 88 56 81 44 150 106 170 152 12 31 46 42 34
12 -3 -10 -15 -81 -26 -158 -10 -77 -28 -169 -39 -203 -20 -64 -26 -123 -13
-136 4 -3 12 6 19 21 l12 28 1 -25 c1 -14 -19 -76 -44 -137 -24 -62 -48 -130
-51 -153 -7 -40 -6 -42 17 -38 13 1 33 17 44 34 29 42 103 126 82 92 -13 -21
-14 -28 -3 -37 10 -9 42 20 142 128 71 77 132 137 136 135 14 -9 8 -55 -32
-242 -22 -103 -45 -215 -50 -249 -10 -61 -3 -203 9 -203 4 0 35 60 69 133 35
73 86 172 115 221 51 88 140 193 166 198 25 5 111 -384 111 -506 l0 -70 29 28
30 29 30 -49 c33 -50 43 -128 20 -151 -14 -14 -8 -58 9 -58 6 0 29 26 50 58
l39 57 64 -76 c114 -137 303 -289 350 -282 12 2 24 8 26 13 2 6 -22 50 -52 97
-30 48 -62 105 -71 128 -10 25 -23 40 -33 40 -20 0 -61 40 -61 59 0 9 20 10
83 6 48 -4 93 -3 108 3 15 6 30 7 35 2 8 -7 170 -41 269 -56 22 -3 51 -2 63 3
23 9 23 10 -17 37 -66 46 -142 136 -116 136 3 0 23 -9 45 -20 22 -11 42 -20
45 -20 3 0 -11 31 -30 70 -40 79 -41 84 -19 76 40 -15 28 12 -42 94 -42 50
-81 90 -85 90 -5 0 -9 7 -9 15 0 19 24 20 39 1 20 -24 138 -58 179 -51 26 4
60 -2 115 -20 43 -14 83 -25 90 -25 19 0 -44 56 -93 83 -32 17 -52 38 -70 71
l-25 47 60 54 c33 30 109 80 169 112 59 32 117 70 127 85 13 17 41 34 83 48
35 11 89 36 121 55 32 19 61 35 65 35 5 0 19 12 32 28 53 61 138 100 138 62 0
-16 36 -12 51 6 7 8 31 25 53 36 60 31 216 165 216 186 0 4 23 35 51 67 79 93
208 294 304 475 48 91 95 176 103 190 29 47 216 309 219 306 3 -3 -71 -176
-119 -276 -21 -45 -31 -84 -34 -130 l-4 -65 82 81 83 82 216 81 c288 108 288
108 299 136 11 28 62 58 84 49 9 -3 16 -2 16 3 0 6 35 37 78 70 42 33 95 83
117 111 35 45 81 79 91 69 8 -8 -80 -115 -141 -173 -76 -70 -85 -94 -24 -64
23 12 43 20 45 17 6 -5 -61 -93 -110 -145 -23 -24 -74 -64 -114 -89 -61 -38
-108 -83 -87 -83 3 0 85 36 183 81 97 44 183 83 191 86 10 4 9 -2 -4 -26 -16
-31 -16 -32 3 -22 38 20 258 185 322 240 35 31 118 107 185 170 184 175 302
275 338 287 18 6 41 24 52 42 17 26 28 32 73 38 126 16 222 -20 259 -96 36
-77 60 -290 48 -440 -7 -90 -7 -91 -71 -187 -36 -53 -63 -98 -61 -100 3 -2 30
8 62 22 32 14 61 25 65 25 8 0 -37 -129 -87 -248 -21 -51 -23 -66 -13 -72 9
-6 -8 -23 -58 -60 -65 -47 -90 -75 -78 -88 3 -2 38 16 78 42 66 41 73 44 76
26 3 -18 5 -19 31 -6 15 8 33 22 40 30 8 9 28 16 45 16 20 0 35 7 43 19 6 10
33 31 58 46 40 23 51 25 72 16 13 -6 26 -11 28 -11 2 0 34 35 70 78 102 118
239 330 325 502 43 85 106 211 141 280 35 69 74 159 87 200 13 41 34 98 47
125 13 28 37 86 54 131 17 44 46 98 64 120 18 21 45 56 60 76 16 21 31 38 35
38 4 0 21 -22 37 -49 23 -41 39 -55 85 -75 58 -26 168 -56 207 -56 13 0 53 24
90 55 38 30 94 68 125 85 l57 31 111 -12 c126 -13 213 -9 420 20 158 22 410
28 499 11 63 -12 128 -64 197 -158 97 -132 176 -124 325 35 37 39 83 79 103
88 94 45 175 209 207 420 20 134 16 445 -10 812 -29 401 -28 414 62 653 107
284 135 420 157 770 7 96 19 207 27 245 9 39 18 122 20 185 4 107 3 120 -21
173 -32 73 -69 97 -149 97 -76 0 -171 -44 -286 -131 -45 -35 -92 -70 -103 -78
-17 -13 -26 -11 -76 13 -31 15 -98 52 -148 82 -50 30 -125 68 -167 83 -42 16
-98 45 -125 64 -61 45 -107 56 -201 46 -70 -8 -80 -6 -150 22 -118 48 -157 58
-291 75 -113 14 -138 14 -258 0 -73 -9 -150 -19 -172 -22 l-40 -7 0 204 c0
112 5 374 11 582 14 438 10 498 -51 770 -22 98 -40 191 -40 206 0 33 -38 150
-55 171 -7 8 -22 33 -33 55 -20 40 -103 135 -118 135 -4 0 -18 9 -30 21 -17
16 -29 19 -59 13 -20 -3 -39 -13 -42 -20 -3 -8 -11 -14 -19 -14 -8 0 -14 -5
-14 -11 0 -6 -9 -22 -19 -36 -11 -13 -25 -48 -31 -78 -6 -29 -18 -59 -25 -65
-23 -19 -34 -74 -46 -215 -15 -193 -77 -486 -150 -710 -28 -86 -58 -151 -59
-130 0 6 -5 39 -10 75 -5 36 -16 117 -24 180 -38 286 -168 1260 -187 1400 -32
232 -105 407 -211 506 -49 46 -87 56 -130 33 -38 -20 -75 -132 -122 -369 -41
-205 -99 -540 -111 -640 -3 -30 -10 -64 -15 -75 -4 -11 -15 -47 -22 -80 -32
-133 -109 -407 -147 -520 -22 -66 -47 -156 -56 -200 -20 -92 -26 -107 -41 -97
-10 7 -108 154 -173 259 -35 56 -58 80 -68 70 -3 -4 -7 -39 -9 -78 -2 -39 -5
-74 -8 -76 -2 -2 -12 9 -22 26 -20 33 -49 43 -40 14 10 -37 38 -223 34 -233
-4 -13 -164 232 -222 340 -41 76 -65 104 -78 92 -4 -4 -4 -23 1 -42 12 -46 20
-143 11 -133 -4 4 -30 61 -58 127 l-52 118 0 120 c0 147 -15 198 -106 355 -92
158 -112 215 -140 388 l-6 40 -30 -60 c-17 -33 -32 -62 -34 -64 -11 -12 -90
58 -142 126 -56 72 -98 111 -108 100 -2 -2 3 -23 11 -47 l15 -42 -120 4 c-66
2 -122 7 -126 10 -13 13 -103 331 -124 435 -11 59 -30 144 -42 188 -26 97 -29
89 -48 -104 -11 -116 -15 -132 -26 -116 -25 34 -75 167 -84 222 -17 104 -51
207 -110 334 -33 70 -60 132 -60 138 0 6 -9 15 -20 21 -11 6 -32 35 -47 66
-15 30 -37 65 -49 77 -11 12 -25 33 -29 47 -8 26 -77 124 -95 135 -5 3 -49 12
-98 20 -48 8 -119 25 -157 38 -63 21 -71 26 -89 64 -11 23 -28 44 -38 46 -17
5 -172 234 -215 320 -13 26 -29 47 -34 47 -12 0 -3 -53 16 -90 7 -14 16 -48
20 -75 4 -28 32 -119 61 -203 61 -174 62 -173 -61 -58 -33 31 -67 56 -76 56
-15 0 -14 -6 7 -50 53 -110 115 -253 111 -256 -6 -6 -166 237 -222 336 -124
222 -143 257 -150 279 -4 13 -20 35 -36 48 -15 13 -33 40 -40 61 -6 20 -18 44
-26 53 -7 9 -13 20 -12 25 2 8 -1 20 -21 69 -11 29 -36 120 -54 200 -26 112
-44 178 -107 390 -32 110 -66 242 -76 293 -19 104 -13 100 -118 75z m4200
-2649 c19 -8 46 -59 113 -219 61 -147 82 -218 121 -405 63 -308 116 -702 156
-1165 18 -202 32 -658 21 -699 l-7 -27 -77 41 c-43 22 -105 64 -137 93 -32 28
-107 86 -166 127 -170 119 -259 189 -259 205 0 8 -3 15 -8 15 -4 0 -32 20 -62
45 -30 25 -60 45 -66 45 -7 0 2 -48 23 -126 18 -70 32 -129 30 -131 -3 -2 -41
35 -86 83 -51 54 -80 92 -77 101 3 8 37 137 76 286 39 150 95 368 125 486 31
117 64 233 75 257 11 23 20 58 20 77 0 18 4 58 9 88 5 30 14 95 21 144 38 296
71 491 102 608 20 78 23 82 53 71z m935 -968 c0 -7 9 -21 20 -31 11 -10 20
-24 20 -32 0 -7 4 -13 10 -13 20 0 59 -88 79 -175 57 -262 69 -405 80 -960 8
-431 3 -640 -18 -760 -18 -106 -40 -286 -51 -435 -6 -80 -22 -208 -36 -285
-14 -77 -36 -205 -50 -285 -30 -171 -84 -419 -120 -545 -102 -365 -249 -729
-357 -888 -131 -193 -320 -341 -477 -376 -44 -9 -325 -51 -345 -51 -16 0 -1
-19 18 -22 18 -3 13 -7 -23 -21 l-45 -17 105 6 c58 3 102 3 98 -1 -3 -4 -62
-28 -129 -55 l-123 -48 -65 23 c-88 31 -423 161 -475 184 -42 20 -95 69 -115
108 -17 34 -12 94 12 139 12 23 59 81 103 130 156 170 397 469 469 580 22 35
70 107 107 161 56 83 208 337 208 348 0 2 13 26 28 52 54 92 240 459 301 593
33 74 85 205 115 290 30 85 75 207 99 270 25 63 73 214 107 335 33 121 70 245
80 275 21 61 92 291 138 445 76 256 112 414 112 488 0 21 5 47 11 59 6 11 19
84 29 161 11 78 25 167 32 197 7 30 12 85 13 122 0 60 2 65 18 57 9 -5 17 -16
17 -23z m-3345 -1443 c96 -16 126 -32 170 -88 22 -29 26 -43 21 -69 -7 -37 0
-66 18 -66 46 -1 43 -51 -4 -70 -24 -10 -30 -19 -30 -42 0 -63 79 -162 156
-194 45 -19 128 -18 170 2 33 16 84 66 115 114 16 24 17 24 63 10 l47 -15
-150 -117 c-83 -65 -160 -118 -171 -118 -12 0 -58 12 -103 26 -88 28 -125 56
-179 134 -31 45 -118 112 -207 158 -74 39 -81 49 -81 107 0 29 -7 69 -15 88
-8 20 -15 66 -15 103 l0 66 53 -7 c28 -4 92 -13 142 -22z m-2114 -282 c-43
-84 -52 -140 -111 -721 -15 -152 -37 -267 -55 -290 -7 -8 -47 -85 -89 -170
-76 -155 -151 -281 -172 -287 -6 -2 -14 26 -20 72 l-10 75 59 57 c79 79 93
104 112 207 9 49 25 101 35 115 15 20 24 71 40 226 53 502 94 664 185 744 45
40 55 29 26 -28z m-439 -119 c-51 -146 -55 -293 -17 -546 25 -171 30 -245 16
-280 -7 -19 -8 -19 -15 0 -48 118 -87 345 -87 504 0 180 35 323 95 388 30 33
33 8 8 -66z m3038 74 c6 -8 10 -25 8 -38 -2 -18 -10 -24 -35 -26 -32 -3 -33
-2 -33 37 0 36 3 41 24 41 13 0 29 -7 36 -14z m-2019 -15 c134 -34 266 -98
322 -155 45 -48 72 -156 48 -194 -6 -10 -14 -4 -31 23 -17 27 -25 33 -31 23
-14 -21 -11 -46 11 -90 31 -64 28 -71 -26 -65 -34 3 -47 1 -51 -10 -8 -21 15
-33 63 -33 39 0 44 4 120 91 l79 90 60 -6 c46 -5 64 -12 75 -28 8 -12 25 -32
38 -45 12 -13 22 -27 22 -32 0 -4 -29 -29 -65 -54 -35 -26 -86 -68 -112 -94
-27 -26 -61 -56 -78 -66 -16 -10 -42 -30 -58 -44 -25 -23 -28 -24 -40 -9 -21
28 -179 127 -203 127 -12 0 -29 7 -38 15 -8 8 -30 15 -49 15 -19 0 -40 -7 -47
-15 -7 -8 -20 -15 -29 -15 -27 0 -105 -54 -165 -114 -65 -66 -193 -255 -235
-348 -30 -66 -30 -66 -63 -58 -18 4 -68 16 -110 26 -68 16 -77 21 -73 39 3 11
16 85 30 165 14 80 34 192 45 250 29 155 61 338 69 392 4 26 14 55 23 65 9 10
25 37 37 60 24 49 51 69 124 94 74 25 238 25 338 0z m7225 -733 c-15 -530 -62
-813 -185 -1121 -45 -112 -78 -175 -121 -227 -20 -25 -43 -60 -51 -77 -32 -76
-42 -21 -28 152 l12 140 -42 148 -42 148 58 70 c139 169 193 279 193 397 0 50
-20 142 -38 169 -10 16 -47 20 -47 5 0 -7 -5 -16 -11 -20 -6 -4 -21 -29 -35
-56 -13 -27 -33 -55 -45 -62 -11 -8 -30 -33 -42 -57 -39 -79 -63 -92 -227
-122 -137 -26 -236 -54 -280 -80 -100 -58 -187 -193 -200 -311 -6 -54 -4 -67
23 -124 36 -75 41 -82 105 -133 59 -48 131 -137 234 -289 62 -93 98 -134 170
-195 50 -43 103 -92 117 -110 32 -38 62 -104 72 -158 4 -22 13 -49 20 -60 8
-10 17 -41 20 -68 8 -58 34 -79 64 -52 56 50 52 187 -10 375 l-41 125 31 25
c18 14 53 38 78 52 l47 26 0 -81 c1 -45 7 -216 14 -380 13 -268 12 -301 -2
-335 -9 -20 -23 -64 -32 -97 -9 -33 -27 -81 -40 -107 -13 -25 -22 -48 -20 -50
1 -1 5 -19 9 -39 6 -34 4 -38 -24 -48 l-31 -10 25 -38 c31 -45 34 -88 7 -103
-25 -13 -78 -13 -86 1 -8 12 -55 3 -100 -18 -64 -30 -113 25 -150 167 -9 35
-26 76 -38 91 -66 81 -110 151 -165 264 -28 59 -75 124 -167 235 -84 102 -93
115 -123 170 -16 30 -82 141 -147 245 -189 303 -259 468 -286 671 -14 110 -6
189 35 357 31 125 34 131 46 105 19 -39 32 -24 30 36 -1 28 -1 56 0 61 3 18
19 -29 19 -58 1 -39 25 -30 29 11 2 17 -1 47 -7 67 -8 31 -7 36 5 31 8 -3 21
-9 29 -12 10 -4 13 -2 10 8 -3 7 1 22 9 33 15 19 15 19 16 -8 0 -35 29 -92 40
-81 5 5 10 41 12 79 l3 70 16 -50 17 -50 1 67 1 68 26 -10 c34 -13 34 -13 34
15 0 33 32 51 105 58 37 4 64 12 71 22 6 8 22 15 35 15 40 0 99 12 99 20 0 7
-38 23 -51 21 -47 -5 -191 -36 -214 -46 -16 -7 -66 -27 -110 -45 -51 -21 -92
-45 -114 -68 -28 -29 -37 -33 -52 -24 -15 10 -27 0 -86 -66 -37 -42 -70 -79
-73 -82 -52 -47 -129 -174 -158 -257 -43 -125 -54 -207 -49 -368 6 -182 19
-238 98 -405 52 -111 55 -121 28 -90 -48 55 -164 220 -189 269 -88 175 -63
377 81 663 32 65 68 141 79 171 11 29 46 91 77 138 45 65 76 98 140 145 46 34
111 86 145 115 l62 54 475 0 c280 1 497 5 526 11 88 17 125 43 178 122 34 51
54 72 68 72 21 0 21 -2 15 -232z m-6451 143 c63 -52 227 -141 258 -141 32 0
123 -49 134 -72 29 -65 58 -141 79 -213 13 -44 42 -129 64 -189 47 -123 80
-244 80 -291 0 -26 -12 -43 -68 -98 -38 -36 -80 -69 -94 -72 -14 -4 -49 0 -79
9 -116 32 -267 49 -390 44 l-119 -5 -78 95 c-42 52 -86 106 -96 121 -11 14
-58 76 -104 138 -46 61 -87 124 -90 138 -10 37 12 181 30 203 8 9 18 26 22 37
25 70 185 234 289 296 45 27 87 49 92 49 6 0 37 -22 70 -49z m-645 -137 c22
-9 40 -19 40 -23 0 -4 15 -13 33 -20 17 -7 45 -28 60 -46 l28 -34 -44 -43
c-24 -24 -56 -65 -71 -92 -36 -63 -32 -118 12 -156 16 -14 40 -48 54 -76 14
-27 45 -77 70 -110 47 -62 61 -86 78 -128 9 -24 5 -29 -65 -76 -41 -28 -98
-71 -126 -96 -58 -51 -92 -68 -123 -58 -38 12 -160 104 -193 146 -18 22 -33
51 -33 64 0 15 -26 53 -72 105 -106 117 -158 194 -158 232 0 36 95 198 150
257 36 39 109 94 185 140 58 34 112 39 175 14z m-682 -426 c136 -53 149 -61
202 -136 17 -24 38 -46 48 -49 9 -3 40 -29 69 -56 42 -40 51 -55 47 -74 -5
-18 4 -33 43 -71 28 -26 52 -53 54 -59 7 -19 105 -118 148 -150 57 -42 97 -34
116 20 16 46 3 36 98 82 44 21 84 44 91 51 11 10 76 19 114 15 28 -3 9 -44
-43 -95 -37 -35 -55 -61 -55 -77 0 -13 -11 -44 -24 -69 -13 -25 -46 -131 -75
-236 -28 -105 -60 -215 -71 -246 -10 -30 -24 -86 -30 -123 -13 -82 -30 -116
-73 -149 -71 -55 -134 -44 -220 37 -30 29 -70 66 -89 83 -27 24 -40 51 -66
135 -64 205 -75 350 -35 452 9 23 39 79 66 125 27 46 55 100 64 120 l15 37
-45 -44 c-26 -25 -60 -73 -79 -113 -27 -57 -40 -74 -72 -90 -66 -34 -89 -27
-226 63 -69 45 -144 97 -167 115 -114 93 -128 220 -42 388 54 105 89 166 97
166 4 0 67 -23 140 -52z m-349 -464 c23 -9 50 -31 65 -52 33 -47 63 -70 221
-170 160 -101 193 -130 206 -179 6 -21 37 -121 70 -221 l60 -184 -7 -91 c-3
-51 -12 -102 -20 -113 -7 -12 -44 -43 -81 -69 -67 -47 -251 -155 -265 -155 -3
0 -20 23 -38 51 -27 44 -34 72 -51 188 -11 75 -33 192 -49 261 -16 69 -34 159
-39 201 -6 43 -29 142 -51 220 -57 202 -82 329 -65 329 2 0 22 -7 44 -16z
m1589 -89 c37 -8 114 -21 172 -30 90 -13 267 -60 299 -79 6 -4 0 -34 -14 -79
-13 -39 -36 -115 -50 -167 -36 -132 -70 -200 -156 -310 -41 -52 -85 -111 -99
-130 -13 -19 -35 -49 -49 -65 -14 -17 -39 -59 -56 -94 l-30 -63 -82 5 c-56 4
-102 14 -145 32 -35 15 -89 33 -121 40 -32 7 -59 14 -61 16 -2 2 -11 37 -20
78 -20 92 -20 175 -1 271 35 169 109 447 128 480 20 35 85 90 122 102 35 11
94 9 163 -7z m1081 -188 c75 -57 192 -141 259 -187 l124 -84 -6 -38 c-11 -65
-58 -178 -87 -207 -38 -39 -115 -59 -251 -67 -102 -6 -126 -4 -185 14 -38 11
-117 33 -178 48 -60 15 -120 33 -132 40 -12 8 -27 32 -33 54 -6 21 -15 42 -20
45 -17 10 -11 50 14 106 14 30 32 92 41 139 38 202 46 217 164 296 l64 43 45
-50 c25 -28 106 -96 181 -152z m579 -420 l142 -93 -27 -25 c-53 -49 -200 -87
-293 -75 -85 11 -88 14 -57 83 22 49 58 144 72 191 3 6 8 12 12 12 4 0 72 -42
151 -93z m-1216 -104 c25 -28 69 -63 78 -63 4 0 35 -20 69 -45 39 -29 86 -79
131 -139 39 -52 70 -98 70 -101 0 -4 -11 -16 -25 -27 -14 -11 -25 -26 -25 -33
0 -8 -13 -21 -29 -29 -18 -10 -36 -33 -51 -68 -12 -29 -24 -55 -26 -57 -6 -6
-354 178 -431 229 -42 27 -80 50 -84 50 -15 0 -10 60 7 96 23 49 83 96 193
154 53 27 98 49 101 50 3 0 13 -8 22 -17z m876 -213 c39 -30 71 -58 72 -62 0
-4 -31 -32 -69 -63 -39 -31 -71 -60 -73 -64 -2 -4 -41 -35 -88 -69 -47 -34
-104 -81 -128 -106 -24 -24 -55 -49 -70 -55 -15 -6 -35 -25 -44 -41 l-17 -29
-90 42 -91 42 0 60 c1 95 6 101 195 213 66 39 163 100 215 135 52 36 100 62
106 58 6 -3 43 -31 82 -61z m-1958 -33 c0 -2 -11 -40 -24 -85 -14 -44 -28
-102 -32 -129 -4 -26 -15 -61 -25 -78 -36 -58 -18 -236 33 -327 19 -34 20 -41
8 -98 -12 -55 -11 -62 5 -80 11 -13 31 -20 53 -20 l34 0 -7 -149 c-7 -150 -4
-168 28 -155 13 5 26 31 59 113 18 46 29 126 29 209 0 45 4 93 9 107 6 15 6
27 0 30 -14 9 -13 262 1 327 21 96 104 149 312 198 82 20 127 20 127 1 0 -5
-7 -25 -15 -46 -15 -35 -15 -40 20 -148 20 -62 39 -128 41 -147 4 -34 37 -139
54 -172 15 -27 40 -134 40 -167 0 -19 5 -31 13 -31 17 0 37 -84 47 -204 4 -50
13 -110 20 -133 12 -38 15 -42 57 -48 24 -3 53 -15 64 -26 18 -18 18 -20 -49
-111 -37 -51 -76 -106 -87 -121 -89 -125 -203 -250 -272 -298 -24 -17 -43 -28
-43 -26 0 6 89 217 105 249 7 15 11 29 8 32 -3 3 -28 -12 -57 -32 -28 -21 -71
-51 -96 -67 -25 -16 -58 -40 -73 -52 -56 -45 -152 -82 -253 -98 -114 -18 -138
-24 -129 -33 8 -8 13 -8 85 -10 54 -2 54 -2 31 -19 -21 -14 -144 -29 -286 -33
l-30 0 25 -19 25 -19 -25 -6 c-14 -3 -97 -9 -185 -14 -139 -8 -164 -8 -187 6
-15 9 -30 23 -34 31 -10 22 -30 199 -53 459 -19 209 -19 236 -5 435 15 223 33
339 63 409 29 68 62 167 81 243 26 103 33 116 86 164 105 93 153 144 158 167
6 24 8 24 126 24 66 0 120 -1 120 -3z m5020 -134 c0 -42 -41 -276 -51 -296
-13 -25 -129 -189 -140 -197 -3 -3 -15 -23 -27 -45 -11 -22 -32 -51 -47 -65
-14 -13 -40 -49 -57 -78 -16 -29 -35 -51 -42 -49 -6 3 -19 8 -28 12 -13 5 -20
1 -27 -17 -10 -27 -103 -115 -138 -131 -13 -6 -23 -14 -23 -18 0 -4 -25 -35
-56 -68 -51 -55 -60 -61 -96 -61 -22 0 -52 8 -66 18 -15 10 -56 30 -92 45 -58
24 -72 36 -119 98 -60 80 -60 78 29 105 123 37 184 81 442 321 199 185 306
275 378 317 32 19 56 41 58 52 4 24 60 74 84 74 11 0 18 -7 18 -17z m-4221
-102 c20 -11 72 -29 116 -41 120 -31 254 -100 322 -165 l58 -55 -23 -65 c-12
-36 -20 -70 -17 -76 4 -5 -3 -24 -13 -42 -26 -42 -39 -122 -22 -142 9 -11 10
-18 1 -28 -6 -8 -22 -49 -36 -92 -24 -77 -92 -195 -126 -219 -10 -6 -33 -10
-53 -8 -55 6 -59 52 -21 237 25 122 32 238 16 264 -10 16 1 44 25 69 12 12 12
30 -2 99 -4 22 -50 83 -63 83 -10 0 -41 -125 -44 -175 -2 -37 0 -40 26 -43
l27 -3 0 -115 c0 -108 -1 -114 -18 -105 -15 8 -19 24 -21 93 -1 46 -5 86 -9
89 -4 4 -16 3 -28 -1 -20 -8 -21 -13 -16 -132 4 -110 3 -122 -10 -110 -9 7
-22 26 -29 43 -10 27 -10 35 5 61 l18 29 -42 60 c-47 67 -44 84 16 95 30 6 34
10 34 38 -1 43 -34 112 -72 148 -23 22 -41 56 -65 126 -18 54 -33 98 -33 100
0 10 69 -2 99 -17z m3496 -219 l50 -7 -45 -36 c-100 -82 -278 -145 -429 -152
l-84 -4 29 21 c16 12 45 35 64 52 66 58 155 122 175 127 30 7 183 6 240 -1z
m561 -309 c19 -63 59 -151 76 -170 12 -12 44 -30 72 -39 73 -24 77 -31 35 -67
-20 -18 -46 -48 -57 -68 l-21 -35 -86 11 c-104 14 -131 32 -164 108 l-24 56
46 78 c26 43 51 83 57 90 5 7 10 16 10 21 0 13 22 32 37 32 8 0 16 -8 19 -17z"/>
<path d="M11181 10867 c-11 -28 -36 -220 -52 -397 -6 -73 -27 -195 -51 -294
-63 -271 -82 -396 -57 -396 24 0 75 161 98 310 34 213 88 800 73 800 -1 0 -6
-11 -11 -23z"/>
<path d="M11150 10065 c-5 -13 -17 -74 -26 -136 -9 -62 -29 -162 -45 -223 -16
-61 -26 -95 -23 -76 17 108 17 107 0 86 -20 -24 -77 -180 -84 -230 -7 -53 12
-40 44 28 l24 51 -6 -45 -6 -45 20 20 c41 40 102 309 117 513 6 84 2 101 -15
57z"/>
<path d="M12031 9238 c-26 -84 -70 -292 -131 -617 -29 -157 -79 -364 -175
-726 -24 -93 -45 -177 -45 -185 1 -27 49 64 81 150 73 201 149 553 244 1123
44 262 51 333 26 255z"/>
<path d="M11535 7302 c-168 -397 -299 -641 -458 -853 -157 -209 -246 -315
-321 -384 -76 -69 -129 -135 -108 -135 23 0 109 69 184 149 163 171 341 412
451 612 82 148 218 433 270 564 49 123 102 293 94 301 -1 2 -52 -113 -112
-254z"/>
<path d="M11467 6972 c-9 -10 -75 -135 -146 -277 -112 -224 -143 -278 -229
-391 -55 -73 -132 -169 -171 -214 -67 -78 -81 -100 -63 -100 5 0 44 35 88 78
50 49 120 136 192 239 110 159 149 231 247 458 26 61 61 136 76 168 31 60 32
68 6 39z"/>
<path d="M6859 8410 c-1 -25 -3 -99 -4 -165 -2 -84 -11 -156 -30 -240 -15 -66
-29 -141 -32 -166 l-5 -46 32 5 c30 4 31 3 21 -16 -15 -28 -14 -32 4 -26 22 9
96 126 129 207 16 37 33 67 38 67 4 0 8 9 8 20 0 16 -5 19 -29 14 l-29 -6 -6
78 c-3 44 -10 106 -16 139 -5 33 -12 86 -16 118 -3 31 -10 57 -15 57 -5 0 -9
-7 -9 -15 0 -20 -10 -19 -26 3 -12 15 -14 12 -15 -28z"/>
<path d="M13151 7036 c-30 -47 -36 -116 -21 -231 14 -113 37 -190 90 -295 71
-142 199 -284 301 -336 106 -53 278 -46 197 9 -44 29 -70 56 -63 66 3 6 0 9
-8 5 -13 -5 -51 40 -119 141 -15 22 -52 65 -82 94 -54 53 -59 62 -157 310 -56
141 -105 260 -109 264 -4 5 -17 -7 -29 -27z"/>
<path d="M7517 4796 c-20 -44 -37 -85 -37 -90 0 -5 -11 -24 -26 -43 -47 -62
-88 -164 -92 -230 -4 -52 -2 -63 11 -63 9 0 21 15 28 34 11 29 24 39 96 72 65
29 95 50 134 92 27 30 48 57 45 59 -4 4 -48 -10 -129 -42 -15 -6 -17 -3 -13
21 7 43 27 266 24 269 -2 1 -20 -34 -41 -79z"/>
<path d="M11795 5240 c-4 -13 -15 -20 -30 -20 -24 0 -72 -51 -109 -118 -31
-57 -9 -48 65 26 39 40 77 72 85 72 9 0 14 11 14 30 0 34 -15 40 -25 10z"/>
<path d="M11586 5034 c-29 -29 -33 -44 -13 -44 20 0 44 22 52 48 9 29 -6 28
-39 -4z"/>
<path d="M2553 13925 c-12 -33 21 -89 69 -115 63 -34 86 -57 114 -112 13 -26
32 -53 41 -60 10 -7 27 -26 37 -43 22 -35 80 -91 116 -111 14 -8 36 -23 50
-34 44 -34 71 -34 113 1 34 28 37 33 22 42 -14 7 -16 18 -11 56 17 123 16 121
42 121 38 0 76 44 72 83 -4 40 -39 49 -72 17 -19 -17 -25 -18 -35 -7 -7 9 -43
17 -99 21 -205 16 -266 35 -381 117 -60 43 -69 46 -78 24z"/>
<path d="M11775 13861 c-3 -5 13 -50 34 -100 l40 -90 -43 -93 -43 -93 -127
-43 c-69 -24 -134 -44 -145 -45 -10 0 -138 52 -284 117 l-265 118 -38 86 c-20
48 -41 91 -44 95 -4 5 -49 -11 -100 -34 -100 -45 -89 -44 -200 -14 l-25 7 25
-20 c13 -11 41 -26 62 -33 41 -13 47 -23 22 -37 -30 -17 -13 -55 39 -83 26
-14 62 -39 80 -56 53 -51 88 -63 176 -63 l79 0 21 -34 c28 -45 96 -106 119
-106 10 0 27 -7 38 -15 23 -18 56 -19 72 -3 9 9 6 15 -16 24 l-27 12 30 1 c49
1 76 -28 89 -95 13 -67 39 -85 56 -40 12 33 18 33 88 -6 56 -31 86 -53 160
-114 20 -17 53 -39 72 -49 19 -10 42 -24 51 -31 8 -8 58 -25 110 -38 52 -13
117 -33 144 -44 28 -11 77 -25 110 -31 33 -7 109 -28 168 -48 l108 -35 -7 -46
c-4 -26 -7 -48 -9 -50 -2 -3 -293 86 -306 93 -5 4 -29 -8 -53 -24 -25 -17 -49
-31 -54 -31 -6 0 -23 20 -38 45 -16 24 -38 49 -49 54 -31 16 -106 33 -113 26
-4 -3 15 -26 41 -49 26 -24 47 -49 47 -55 0 -19 63 -51 101 -51 30 0 43 -7 68
-35 17 -19 32 -35 35 -35 2 0 6 9 9 21 5 19 7 19 34 6 15 -8 39 -27 52 -41 20
-21 22 -28 11 -41 -7 -8 -23 -15 -36 -15 -14 0 -24 -6 -24 -14 0 -18 38 -46
61 -46 8 0 30 -18 48 -40 20 -26 40 -40 55 -40 12 0 71 25 129 56 72 37 113
53 127 49 20 -6 60 -51 60 -66 0 -12 -40 -32 -80 -39 l-35 -6 1 -70 c0 -58 4
-74 22 -92 15 -15 22 -34 22 -61 0 -53 -17 -61 -49 -24 -50 57 -108 87 -177
91 -76 5 -85 -11 -29 -54 l35 -26 0 -113 c0 -165 1 -168 74 -203 66 -32 162
-47 202 -32 17 7 24 17 24 35 0 32 31 51 98 60 l52 7 -5 -54 c-7 -61 9 -101
41 -106 18 -2 22 4 27 35 4 21 7 57 7 79 0 23 3 56 7 74 l6 33 116 -6 c64 -3
133 -11 153 -17 51 -15 96 -55 106 -93 8 -29 12 -32 47 -32 47 0 53 15 35 80
-15 55 -86 127 -142 145 -24 8 -53 24 -65 37 -12 13 -29 23 -37 23 -10 0 -17
16 -21 54 -6 47 -12 58 -45 85 -30 24 -40 40 -45 73 -10 61 -17 71 -77 103
-29 16 -55 32 -58 35 -3 4 -28 22 -56 39 -54 33 -84 78 -84 126 0 54 -60 125
-107 125 -18 0 -92 66 -82 73 2 2 13 9 24 15 19 10 19 11 -7 21 -86 34 -78 20
-78 125 l0 94 85 58 86 58 -28 26 c-77 70 -206 179 -252 215 -49 37 -76 60
-141 119 -14 12 -72 50 -129 85 -57 35 -137 87 -177 117 -78 58 -80 59 -89 45z"/>
<path d="M3330 13690 c0 -44 -9 -48 -51 -27 -52 25 -61 16 -70 -66 -3 -34 -5
-63 -5 -64 1 -1 32 -5 69 -9 64 -6 68 -6 74 15 3 12 13 21 23 21 12 0 20 9 22
23 2 14 11 23 26 25 32 5 39 -24 13 -59 l-21 -29 40 -6 c32 -5 50 -17 82 -53
22 -25 44 -45 49 -43 5 1 9 -4 9 -10 0 -7 13 -28 28 -46 28 -34 28 -34 64 -19
20 9 44 27 54 41 16 25 16 28 -1 46 -20 23 -47 25 -94 9 -18 -6 -35 -9 -38 -6
-6 7 43 56 72 73 18 10 16 14 -28 72 -44 57 -49 60 -80 55 -25 -4 -49 3 -93
25 -32 17 -78 35 -101 40 -38 9 -43 8 -43 -8z"/>
<path d="M1735 13189 c-11 -17 4 -75 26 -103 12 -15 37 -35 57 -46 77 -40 124
-84 141 -129 15 -41 20 -45 83 -66 39 -13 86 -39 115 -63 53 -45 230 -152 250
-152 8 0 13 13 13 33 1 55 44 136 105 199 l58 59 -18 32 c-10 18 -36 51 -58
75 -34 35 -48 42 -79 42 -34 0 -38 -3 -38 -24 0 -25 35 -60 71 -71 14 -5 19
-16 19 -46 0 -44 -8 -48 -35 -19 -11 12 -31 20 -52 20 -20 0 -33 5 -33 13 0
26 -59 107 -78 107 -10 0 -38 -18 -61 -40 -34 -33 -49 -40 -82 -40 -34 0 -46
7 -85 45 -24 25 -48 45 -51 45 -4 0 -20 12 -36 27 -22 22 -41 29 -85 33 -54 5
-58 7 -77 42 -20 38 -55 51 -70 27z"/>
<path d="M3913 13045 c-10 -27 6 -30 30 -7 l21 22 -22 0 c-12 0 -25 -7 -29
-15z"/>
<path d="M2397 12553 c-2 -5 0 -21 4 -38 7 -29 7 -29 8 8 1 35 -3 46 -12 30z"/>
<path d="M2011 12496 c-6 -7 -29 -16 -51 -20 -38 -6 -39 -7 -29 -35 6 -17 17
-35 24 -41 9 -8 12 -28 8 -70 -5 -54 -3 -64 23 -102 27 -38 29 -40 32 -18 4
24 26 64 50 89 14 14 7 144 -9 189 -10 25 -31 29 -48 8z"/>
<path d="M2385 12470 c-19 -8 -19 -9 3 -9 12 -1 22 4 22 9 0 6 -1 10 -2 9 -2
0 -12 -4 -23 -9z"/>
<path d="M2338 12453 c7 -3 16 -2 19 1 4 3 -2 6 -13 5 -11 0 -14 -3 -6 -6z"/>
<path d="M1659 12323 c-6 -16 -13 -41 -16 -56 -7 -35 -76 -95 -117 -102 -17
-3 -84 1 -148 9 -113 14 -129 20 -228 76 -71 41 -87 20 -48 -62 20 -42 29 -50
73 -64 27 -9 67 -25 88 -36 51 -26 216 -134 247 -163 14 -12 34 -26 46 -29 23
-7 94 -76 77 -76 -6 0 -32 9 -57 21 -26 11 -70 26 -97 33 -49 13 -51 13 -66
-10 -24 -38 -18 -97 17 -163 18 -33 29 -64 25 -70 -3 -6 -19 -11 -35 -11 -23
0 -33 7 -46 33 -9 17 -30 53 -47 79 -25 38 -38 48 -60 48 -20 0 -31 -7 -39
-25 -8 -18 -19 -25 -40 -25 -36 0 -38 -27 -3 -60 14 -13 39 -45 56 -72 27 -42
35 -48 65 -48 25 0 38 -7 51 -26 16 -25 16 -28 -7 -70 -19 -34 -22 -49 -15
-70 14 -38 35 -48 87 -40 l45 7 77 134 78 135 -22 61 c-11 34 -19 63 -17 65 2
2 29 -9 60 -26 31 -16 59 -30 62 -30 12 0 3 35 -21 76 l-26 44 24 0 c36 0 68
11 68 24 0 11 73 122 126 191 14 19 40 39 56 43 l30 8 -43 46 c-24 25 -66 74
-94 108 -47 59 -121 120 -145 120 -6 0 -15 -12 -21 -27z"/>
<path d="M12610 11815 c-7 -8 -20 -15 -29 -15 -10 0 -26 -6 -36 -14 -17 -12
-18 -17 -6 -39 9 -16 12 -43 9 -71 l-6 -46 44 0 c79 0 144 20 183 56 l36 33
-43 1 c-42 0 -43 1 -68 55 -20 43 -30 55 -49 55 -12 0 -28 -7 -35 -15z"/>
<path d="M13405 11631 c-15 -30 -14 -31 15 -53 25 -18 30 -28 28 -57 -3 -34
-1 -37 40 -49 72 -23 88 -2 56 77 -14 35 -38 58 -111 104 -8 5 -18 -3 -28 -22z"/>
<path d="M12660 11440 c-36 -49 -66 -96 -68 -104 -2 -8 10 -29 26 -48 16 -18
53 -72 82 -120 29 -49 56 -88 62 -88 5 0 27 -18 49 -40 22 -22 44 -40 49 -40
13 0 28 -63 36 -155 7 -73 10 -83 43 -117 19 -21 43 -40 53 -44 21 -6 79 -125
102 -209 16 -59 26 -85 99 -272 20 -50 39 -110 43 -133 4 -23 17 -54 30 -70
13 -15 24 -34 24 -42 0 -8 13 -54 30 -103 16 -49 36 -126 44 -171 8 -46 20
-93 26 -104 14 -25 29 -108 40 -216 4 -45 16 -96 25 -115 10 -18 26 -85 36
-148 55 -352 59 -384 59 -485 0 -145 3 -153 66 -173 29 -9 76 -33 103 -54 51
-38 121 -66 121 -48 0 19 -22 104 -31 124 -13 26 -27 175 -18 175 4 0 10 -13
14 -30 7 -34 9 -34 36 -20 10 6 19 21 19 33 0 13 7 32 15 43 20 27 18 48 -6
70 -45 41 -52 71 -45 186 l6 107 -30 16 c-28 14 -30 20 -30 69 0 62 -7 86 -25
86 -7 0 -25 10 -40 22 -22 17 -31 19 -45 10 -15 -9 -19 -7 -24 11 -14 52 -9
60 33 53 39 -6 39 -6 46 32 6 39 -2 83 -30 164 -16 43 -16 49 -1 79 21 41 20
46 -4 54 -18 6 -20 12 -14 54 5 42 2 56 -36 132 -32 63 -44 99 -48 146 -4 55
-7 63 -30 71 -20 6 -32 27 -63 107 -21 55 -42 116 -45 135 -4 19 -15 51 -25
70 l-18 35 -1 -92 c0 -71 5 -105 21 -145 19 -50 49 -189 49 -232 0 -64 -66
120 -75 209 -8 80 -35 186 -53 207 -8 9 -17 44 -21 77 -7 57 -6 60 17 66 20 5
22 8 12 20 -7 9 -24 21 -38 28 -39 18 -61 65 -72 149 -5 41 -18 97 -28 124
-11 27 -23 68 -27 91 -5 33 -14 47 -40 63 -21 13 -32 27 -30 38 17 84 15 92
-21 109 -19 9 -34 20 -34 24 0 4 -32 47 -71 94 -39 48 -80 109 -91 137 -32 84
-125 191 -165 187 -4 0 -37 -40 -73 -89z"/>
<path d="M1125 11423 c-73 -169 -121 -223 -205 -237 -39 -6 -94 4 -317 59 -76
19 -73 19 -73 -5 0 -10 10 -25 23 -31 12 -6 31 -20 42 -30 11 -9 47 -24 80
-33 91 -22 188 -57 207 -73 9 -8 18 -23 21 -35 5 -18 2 -19 -31 -13 -20 4 -57
15 -81 26 -24 11 -45 18 -47 17 -10 -10 -14 -58 -6 -58 6 0 32 -18 57 -40 25
-22 53 -40 62 -40 8 0 31 -14 50 -31 47 -41 66 -35 77 24 7 42 11 47 35 46 14
0 49 -8 76 -17 l50 -17 3 -68 c2 -48 7 -70 17 -74 9 -3 44 1 80 8 l66 13 20
70 c11 39 24 83 29 97 4 15 5 42 1 60 -9 46 6 137 30 177 25 44 24 60 -6 68
-39 10 -70 -18 -107 -96 l-33 -70 -55 3 -55 2 2 39 c2 22 21 77 43 123 45 94
46 102 25 143 -23 45 -59 41 -80 -7z"/>
<path d="M3140 11280 c-67 -98 -79 -111 -110 -116 -95 -16 -140 -41 -140 -79
0 -12 9 -48 20 -79 l19 -57 -62 -109 c-58 -103 -65 -110 -102 -120 -69 -18
-83 -27 -90 -60 -4 -18 -2 -51 5 -76 12 -43 12 -45 -37 -131 -30 -53 -53 -107
-57 -135 -4 -26 -11 -50 -16 -53 -16 -10 -49 -136 -59 -225 -6 -48 -22 -114
-36 -150 -31 -76 -48 -98 -40 -55 24 146 36 201 51 228 11 22 18 65 21 142 l4
110 -20 -35 c-17 -30 -19 -47 -14 -115 5 -76 3 -85 -34 -180 -22 -55 -61 -157
-87 -226 -45 -119 -50 -126 -83 -138 -25 -10 -33 -17 -28 -29 4 -10 -2 -22
-16 -33 -20 -15 -21 -19 -10 -48 15 -34 11 -76 -13 -136 -16 -42 -21 -122 -8
-142 5 -8 19 -9 46 -3 36 8 38 7 32 -13 -3 -12 -6 -33 -6 -46 0 -23 -1 -23
-19 -7 -13 12 -21 14 -26 6 -3 -6 -23 -18 -43 -28 -36 -17 -37 -19 -40 -79 -3
-56 -6 -63 -36 -86 l-32 -25 9 -76 c12 -102 3 -159 -34 -200 -31 -36 -36 -55
-18 -73 6 -6 14 -26 18 -45 9 -44 42 -51 58 -11 10 26 11 25 12 -22 0 -27 -4
-66 -9 -85 -5 -19 -20 -78 -34 -130 -29 -108 -33 -153 -17 -193 17 -43 13
-143 -9 -227 -26 -100 -26 -163 2 -208 l22 -35 -24 -69 c-19 -55 -21 -73 -12
-92 6 -13 16 -62 22 -108 6 -46 17 -117 25 -158 8 -41 19 -129 25 -195 16
-186 40 -333 60 -357 31 -39 46 -17 99 146 28 85 71 201 95 257 l45 102 -11
73 -11 72 -83 46 c-81 46 -82 47 -74 79 12 51 21 68 66 133 l43 60 -5 221 c-3
121 0 294 6 384 6 90 15 232 20 314 11 173 24 301 38 365 6 25 16 83 22 130 6
47 20 104 30 127 10 23 21 68 25 100 11 108 28 198 41 225 8 14 19 59 25 100
14 90 82 309 108 346 11 15 22 45 26 67 6 37 54 167 95 261 10 22 28 76 40
120 28 98 85 215 109 221 10 2 34 24 55 48 31 38 36 51 36 94 0 91 18 149 60
191 21 21 47 43 58 49 21 11 87 102 117 161 10 19 31 50 46 68 16 18 29 37 29
41 0 12 -89 121 -98 121 -4 -1 -41 -50 -82 -110z"/>
<path d="M13610 11299 c-81 -49 -121 -109 -105 -159 10 -31 52 -26 82 10 31
37 36 34 103 -65 72 -106 111 -135 148 -109 36 25 36 59 -3 128 -19 35 -35 67
-35 72 0 5 13 15 30 21 28 10 51 55 36 70 -4 4 -37 7 -74 7 -51 1 -76 6 -103
24 -20 12 -38 22 -40 22 -2 0 -20 -10 -39 -21z"/>
<path d="M1044 10764 c-3 -13 -9 -24 -13 -25 -36 -4 -66 -9 -77 -13 -18 -7
-18 -26 -1 -26 7 0 26 -13 42 -30 16 -16 35 -30 42 -30 8 0 24 -12 37 -27 l23
-26 27 74 27 74 -22 15 c-12 8 -35 20 -51 27 -26 11 -28 10 -34 -13z"/>
<path d="M692 10247 c-16 -29 -31 -61 -33 -72 -4 -19 -14 -20 -149 -23 -85 -2
-168 2 -201 9 -37 7 -63 8 -74 2 -28 -16 82 -73 140 -73 51 0 119 -30 129 -56
7 -18 -8 -34 -31 -34 -20 0 -15 -41 7 -65 13 -14 23 -42 27 -74 6 -49 4 -54
-22 -75 -20 -16 -26 -28 -22 -40 8 -19 40 -14 68 10 8 8 30 14 47 14 29 0 32
-3 32 -31 0 -23 -12 -44 -45 -81 -51 -57 -69 -114 -40 -130 9 -6 26 -21 38
-34 11 -13 25 -24 30 -24 5 0 32 -16 61 -35 50 -33 119 -56 214 -70 l42 -7 0
35 c0 19 6 49 14 67 11 27 11 44 -1 107 -14 74 -14 76 8 99 21 22 21 27 9 64
-13 40 -13 41 20 75 l33 34 -24 57 -24 57 38 32 38 33 -33 19 c-39 22 -96 40
-157 48 -72 9 -81 18 -81 81 0 35 6 67 17 85 16 26 16 31 3 39 -30 19 -48 9
-78 -43z"/>
<path d="M1580 10100 c-5 -10 -10 -25 -10 -33 0 -8 -17 -22 -37 -30 l-37 -14
-2 -108 c-1 -93 1 -110 17 -126 11 -11 25 -19 33 -19 8 0 17 -11 20 -24 3 -14
13 -32 22 -41 14 -14 15 -22 5 -54 -6 -21 -11 -48 -11 -61 0 -12 -8 -35 -17
-51 l-17 -29 -96 6 c-56 4 -106 2 -121 -4 -29 -11 -59 -66 -59 -106 0 -27 3
-28 83 -41 35 -6 37 -8 37 -45 0 -22 -10 -63 -22 -92 -14 -34 -23 -85 -27
-143 l-6 -90 -37 1 c-34 1 -38 -2 -52 -36 -38 -95 -24 -165 42 -220 l36 -30
-24 -25 c-16 -17 -34 -25 -56 -25 -18 0 -35 -4 -39 -9 -3 -5 2 -31 11 -56 17
-53 13 -66 -14 -42 -28 26 -38 21 -55 -25 -41 -112 -43 -160 -6 -194 10 -9 19
-25 19 -36 0 -15 -8 -18 -44 -18 l-43 0 -7 131 c-6 112 -4 135 9 156 14 21 14
32 5 80 -13 60 -7 121 17 186 9 26 18 98 23 184 4 78 12 148 18 155 5 7 19 61
30 120 12 58 28 120 36 137 11 21 16 58 16 120 0 86 2 93 41 165 54 100 61
128 46 183 -13 51 -36 55 -51 8 -5 -17 -17 -50 -26 -75 -10 -25 -21 -67 -25
-95 -4 -27 -15 -74 -26 -103 -10 -29 -19 -67 -19 -85 0 -30 -19 -98 -40 -142
-5 -11 -16 -56 -24 -100 -8 -44 -22 -96 -30 -116 -11 -26 -17 -89 -21 -215 -4
-99 -13 -210 -20 -249 -18 -89 -35 -247 -35 -323 0 -38 -8 -78 -21 -110 -16
-39 -20 -62 -15 -96 4 -25 11 -48 17 -51 5 -4 9 -99 9 -224 0 -284 15 -530 46
-766 14 -104 29 -230 34 -279 6 -49 17 -116 26 -150 9 -33 20 -115 24 -181 7
-106 12 -129 44 -200 35 -79 35 -81 24 -147 -12 -67 -12 -67 25 -140 41 -81
64 -142 77 -203 5 -22 16 -55 26 -74 15 -30 16 -41 5 -85 -20 -81 -17 -102 24
-164 76 -113 85 -128 119 -202 19 -41 42 -86 51 -100 26 -42 125 -257 125
-272 0 -7 11 -29 23 -48 13 -19 59 -105 101 -190 43 -85 84 -166 92 -180 7
-14 24 -50 38 -81 14 -31 32 -62 41 -69 9 -8 32 -44 51 -81 18 -37 40 -71 48
-76 7 -4 26 -33 41 -63 15 -30 34 -63 43 -73 9 -10 25 -33 37 -51 11 -18 43
-66 70 -106 28 -39 59 -86 69 -103 31 -51 196 -278 235 -324 20 -22 74 -89
121 -148 47 -59 103 -126 125 -150 22 -23 66 -73 97 -111 89 -108 300 -307
457 -429 35 -28 81 -65 101 -82 50 -44 75 -43 99 5 11 20 31 52 45 71 25 34
35 81 17 81 -5 0 -28 -7 -51 -15 -23 -8 -44 -15 -45 -15 -2 0 -15 20 -29 45
-15 24 -45 66 -67 92 -23 25 -69 103 -103 172 -35 69 -82 158 -106 196 -47 76
-209 397 -259 512 -17 40 -47 118 -66 173 -20 55 -46 124 -59 154 l-24 53 45
-24 c47 -27 58 -26 49 5 -4 12 -39 33 -99 58 l-92 40 -33 139 c-46 198 -62
293 -71 423 -6 86 -12 117 -25 130 -16 16 -18 16 -31 -1 -11 -16 -14 -16 -28
-2 -9 8 -19 24 -22 35 -3 11 -12 20 -19 20 -7 0 -30 13 -50 29 -21 17 -52 35
-70 41 -27 9 -39 22 -60 69 -14 32 -26 64 -26 70 0 7 -12 23 -27 37 -28 26
-28 26 -28 167 -1 135 1 143 22 167 35 37 37 62 13 119 l-22 51 -52 0 -52 0
-11 43 c-7 25 -34 69 -67 109 -31 36 -56 75 -56 86 0 11 13 62 30 112 16 50
30 96 30 101 0 21 -31 7 -45 -21 -25 -49 -40 -37 -60 48 -21 96 -19 112 22
126 17 6 35 14 38 18 9 9 -24 146 -36 154 -5 3 -18 27 -30 54 -25 58 -39 57
-32 0 3 -22 3 -40 0 -40 -4 0 -18 25 -32 56 -27 59 -45 129 -64 254 -7 41 -19
116 -28 165 -8 50 -19 149 -23 220 -7 111 -26 258 -46 357 -5 26 -4 27 31 21
l36 -6 -5 165 c-4 136 -9 172 -25 208 -12 26 -21 67 -21 96 0 48 3 53 45 92
48 43 56 72 30 106 -21 28 -19 34 20 57 34 21 35 21 19 51 -13 25 -14 38 -5
74 6 23 11 84 11 133 0 67 5 105 20 143 23 61 25 90 8 118 -9 14 -9 25 -1 42
21 47 42 135 48 203 3 39 9 85 12 103 4 26 2 31 -10 27 -9 -4 -17 2 -21 17 -9
37 -7 58 7 58 7 0 33 20 57 45 l45 46 0 107 0 106 -130 51 -130 50 -57 112
-58 112 40 102 c22 57 37 106 33 109 -5 4 -27 14 -50 23 -41 16 -43 16 -53 -3z"/>
<path d="M458 9150 c-15 -4 -41 -18 -57 -29 -51 -37 -188 -73 -251 -67 -116
11 -123 11 -127 -1 -3 -7 14 -30 36 -52 23 -22 41 -49 41 -60 0 -12 11 -23 30
-30 l31 -10 -6 -73 c-3 -40 -6 -80 -7 -88 0 -8 2 -31 6 -51 7 -31 5 -36 -18
-47 -47 -21 -30 -65 42 -110 78 -48 88 -49 102 -7 9 27 17 35 35 35 33 0 37
-12 15 -47 -18 -30 -18 -32 0 -48 10 -9 42 -20 72 -24 29 -4 64 -14 78 -24 14
-9 45 -19 70 -23 25 -3 64 -17 87 -29 23 -13 57 -26 75 -30 18 -4 41 -9 51
-11 14 -5 17 2 17 39 0 24 -7 66 -15 93 -22 71 -19 130 8 173 17 27 24 58 28
126 4 50 10 113 14 140 l7 50 -85 63 c-84 61 -85 62 -150 62 l-66 0 -3 42 c-3
46 -13 53 -60 38z"/>
<path d="M401 8053 c-7 -3 -22 -14 -32 -24 -10 -10 -35 -21 -56 -24 -37 -7
-79 -20 -158 -49 -22 -8 -66 -15 -97 -16 -50 0 -58 -3 -58 -19 0 -20 18 -31
50 -31 23 0 70 -20 70 -30 0 -4 -11 -12 -25 -18 -30 -14 -31 -31 -5 -112 15
-47 20 -90 20 -170 l0 -107 69 -12 c39 -6 81 -11 95 -11 16 0 26 -6 26 -14 0
-11 -14 -14 -62 -13 -58 2 -63 0 -66 -20 -5 -31 24 -36 116 -22 79 12 80 12
155 -19 70 -30 77 -31 104 -17 19 10 59 15 126 15 90 0 97 1 97 20 0 11 7 38
16 60 16 39 15 43 -5 97 -12 31 -28 111 -36 180 -8 67 -22 137 -31 155 -16 30
-15 69 2 126 6 20 3 22 -32 22 -22 -1 -63 -9 -93 -19 -68 -24 -103 -14 -137
40 -25 40 -28 42 -53 32z"/>
<path d="M395 6935 c-79 -62 -143 -89 -246 -107 l-71 -11 6 -30 c3 -16 6 -45
6 -63 0 -32 2 -34 35 -34 44 0 78 -35 96 -98 14 -51 20 -56 64 -48 24 5 39 17
56 44 19 31 23 34 26 17 2 -11 11 -40 20 -63 l15 -44 -33 -34 -33 -34 31 -32
c17 -18 36 -43 42 -55 6 -13 22 -25 36 -29 13 -3 31 -17 40 -30 20 -31 79 -33
128 -4 28 17 50 20 123 18 72 -1 98 3 138 20 l49 22 -6 43 c-4 23 -11 62 -16
87 -6 25 -19 97 -30 161 -23 134 -34 162 -68 180 -25 14 -26 18 -8 90 11 44
-18 63 -84 54 -212 -27 -193 -27 -221 5 l-25 30 -70 -55z"/>
<path d="M908 5945 c-16 -9 -28 -19 -28 -24 0 -14 -50 -31 -94 -31 -35 0 -45
4 -56 25 -15 27 -67 36 -76 12 -9 -25 -203 -189 -253 -213 -52 -26 -62 -40
-36 -50 12 -5 15 -25 15 -95 0 -124 15 -174 66 -216 26 -20 44 -45 48 -63 5
-28 8 -30 55 -30 29 0 88 -13 143 -31 138 -47 180 -44 363 20 83 29 155 59
161 67 10 12 12 130 5 231 -1 14 -104 166 -131 193 -27 27 -61 108 -69 165
l-6 50 -40 2 c-22 2 -52 -4 -67 -12z"/>
<path d="M1281 4924 c-19 -14 -59 -32 -90 -40 -50 -15 -59 -15 -114 0 l-60 17
-64 -71 c-58 -63 -96 -89 -165 -113 -26 -9 -22 -42 7 -55 20 -9 25 -19 25 -51
0 -31 -4 -40 -21 -44 -20 -5 -21 -11 -18 -91 l4 -85 57 -53 c31 -29 83 -73
117 -97 33 -25 69 -57 81 -73 23 -32 69 -38 91 -12 21 25 106 64 140 64 22 0
38 -9 57 -30 21 -23 35 -30 64 -30 48 0 50 19 7 68 l-32 36 27 23 c16 13 40
23 59 23 17 0 71 16 119 36 80 34 88 39 88 64 0 15 -7 33 -15 40 -25 21 -74
98 -81 128 -4 15 -17 45 -30 67 -12 22 -26 58 -30 80 -9 50 -27 86 -77 153
-61 80 -87 88 -146 46z"/>
<path d="M13480 4580 c-29 -50 -57 -93 -61 -96 -5 -3 -16 -19 -25 -36 -15 -30
-15 -32 2 -45 25 -18 29 -17 42 11 6 14 27 43 47 64 19 22 35 44 35 50 0 5 16
34 36 63 35 49 36 53 18 66 -10 7 -23 13 -30 13 -6 0 -35 -41 -64 -90z"/>
<path d="M12533 4576 c-65 -49 -188 -106 -233 -106 -8 0 -40 -25 -70 -55 -43
-43 -59 -69 -75 -118 -17 -54 -25 -64 -57 -80 -30 -13 -38 -23 -38 -44 0 -15
-5 -89 -11 -165 -8 -102 -8 -147 1 -172 24 -73 71 -73 89 -1 8 30 21 52 42 67
17 13 37 38 44 56 10 23 22 34 44 38 16 4 32 13 35 21 3 8 31 25 61 39 39 17
61 34 73 56 9 17 36 60 60 96 24 35 47 74 52 86 4 12 20 36 34 53 16 20 32 59
45 113 14 59 27 90 47 111 15 16 26 30 23 32 -14 10 -63 27 -78 27 -11 0 -50
-24 -88 -54z"/>
<path d="M13595 4569 c-4 -27 -5 -52 -2 -55 2 -3 19 7 36 22 l31 26 -21 29
c-11 16 -24 29 -29 29 -4 0 -11 -23 -15 -51z"/>
<path d="M13239 4345 c-36 -6 -72 -14 -80 -17 -8 -3 -104 -138 -213 -300
l-197 -294 9 -42 10 -42 -57 0 -56 0 -103 -103 c-102 -103 -103 -103 -114
-168 -10 -64 -10 -66 26 -137 l37 -73 -60 31 c-59 29 -61 30 -143 19 l-83 -11
-102 -101 -103 -102 0 -85 0 -85 373 -373 372 -372 105 0 105 0 83 83 82 82 0
57 0 56 65 7 c86 10 119 43 129 134 l7 61 57 0 57 0 83 83 82 82 0 80 0 80
-290 290 c-312 312 -305 301 -213 304 24 1 39 10 63 42 18 22 38 38 44 36 6
-3 139 -91 295 -197 l285 -193 85 13 c47 7 94 16 104 19 10 4 48 53 86 109
l68 103 -16 74 c-9 41 -23 81 -31 89 -8 8 -134 95 -281 193 -146 98 -278 187
-294 199 l-28 21 31 46 32 45 -17 80 -17 80 -82 56 c-88 60 -91 60 -195 41z
m109 -137 c42 -28 79 -52 80 -54 2 -1 -25 -43 -59 -93 -55 -79 -61 -93 -49
-105 15 -14 74 -54 463 -316 125 -84 227 -157 227 -161 0 -5 -27 -47 -60 -95
-32 -48 -61 -92 -63 -98 -5 -14 30 -36 -377 238 -276 186 -342 227 -354 217
-8 -6 -38 -48 -66 -91 -29 -44 -55 -80 -58 -80 -3 0 -41 23 -84 51 -47 31 -75
56 -71 63 18 31 387 576 390 576 2 0 39 -23 81 -52z m150 -1393 c2 -12 -139
-155 -153 -155 -6 0 -111 101 -235 225 -123 123 -226 223 -228 221 -3 -4 123
-231 248 -446 21 -36 47 -84 58 -106 l21 -41 -24 -23 -24 -23 -38 20 c-21 11
-153 84 -293 163 -140 78 -259 145 -265 147 -5 3 96 -101 225 -231 l235 -236
-80 -80 -80 -80 -375 375 -375 375 101 101 102 101 240 -126 c132 -69 243
-126 246 -126 3 0 -28 64 -69 143 -41 78 -98 188 -127 244 l-53 103 100 100
100 100 371 -367 c204 -203 372 -372 372 -378z"/>
<path d="M1764 4019 c-26 -22 -71 -53 -101 -67 -48 -24 -56 -25 -89 -13 -19 7
-36 11 -38 9 -10 -17 -36 -81 -36 -89 0 -19 -54 -88 -78 -98 -13 -6 -34 -11
-47 -11 -21 0 -25 -5 -25 -27 0 -16 -9 -48 -20 -72 -29 -63 -25 -90 25 -188
51 -99 85 -143 132 -167 22 -11 35 -27 41 -49 8 -32 9 -32 65 -31 61 1 64 -1
42 -30 -13 -17 -13 -22 2 -38 9 -10 24 -18 33 -18 28 0 68 38 88 83 18 41 72
97 94 97 23 0 115 -61 154 -102 23 -24 56 -73 74 -110 31 -65 32 -67 15 -102
-9 -19 -31 -44 -49 -54 -34 -20 -62 -43 -121 -100 -36 -34 -56 -95 -37 -114
14 -14 62 -2 62 16 0 13 77 42 87 33 9 -9 -17 -45 -47 -67 -17 -12 -30 -30
-30 -42 0 -29 100 -140 190 -211 124 -98 160 -149 160 -222 0 -39 3 -46 18
-43 9 2 28 26 41 56 18 38 30 52 45 52 12 0 30 6 42 13 12 6 43 24 70 39 27
14 60 38 74 53 14 15 44 35 68 46 45 21 49 30 27 69 -8 14 -14 31 -15 38 0 17
96 120 119 127 23 7 51 57 51 90 0 29 -93 160 -138 196 -15 11 -73 65 -129
120 -55 55 -114 104 -130 110 -40 13 -78 -2 -98 -40 -20 -41 -82 -81 -122 -81
-26 0 -45 12 -98 63 -54 52 -71 77 -100 147 -19 46 -35 90 -35 96 0 7 11 15
24 18 14 3 34 19 45 35 12 16 38 36 59 44 21 8 44 22 51 30 19 24 3 82 -35
124 -19 20 -34 42 -34 49 0 6 -17 31 -38 55 -22 24 -45 55 -52 69 -7 14 -49
76 -92 138 -53 74 -86 112 -98 112 -10 0 -40 -18 -66 -41z"/>
<path d="M12253 3626 c4 -9 0 -31 -9 -49 -13 -23 -15 -46 -11 -93 l6 -63 -36
-3 c-31 -3 -38 -8 -45 -33 -4 -16 -5 -54 -1 -83 l6 -54 61 7 c34 4 79 10 101
14 l39 6 17 103 c9 56 21 108 27 115 8 9 -6 26 -56 67 -36 30 -75 61 -86 69
-18 13 -19 13 -13 -3z"/>
<path d="M11484 3383 c-61 -14 -63 -16 -153 -121 -50 -59 -108 -127 -130 -150
l-38 -44 -36 32 -36 31 -57 -32 c-31 -18 -68 -43 -83 -57 -37 -35 -102 -63
-117 -51 -8 7 -27 0 -59 -20 l-48 -30 -43 30 c-32 22 -51 28 -67 23 -57 -17
-208 -79 -267 -109 -36 -19 -86 -41 -112 -49 -26 -8 -64 -25 -85 -36 -21 -11
-46 -20 -57 -20 -10 0 -44 -13 -75 -29 -31 -15 -92 -36 -136 -45 -44 -10 -107
-28 -140 -41 -33 -13 -102 -31 -153 -40 -52 -9 -135 -29 -186 -45 -51 -15
-128 -33 -172 -40 -43 -6 -92 -18 -107 -26 -16 -8 -41 -14 -55 -14 -15 0 -43
-5 -62 -11 -40 -12 -170 -25 -388 -39 l-154 -9 -41 -34 c-23 -19 -69 -60 -102
-91 -33 -31 -67 -57 -75 -57 -8 -1 -80 -3 -159 -5 -124 -2 -152 0 -195 17
l-51 19 -23 -27 c-13 -16 -34 -40 -46 -54 -18 -22 -34 -27 -90 -34 -60 -6 -70
-5 -90 14 l-21 20 -68 -26 c-98 -39 -98 -40 83 -62 47 -6 119 -11 161 -11 68
0 78 2 92 23 l15 22 45 -24 c51 -28 90 -26 210 10 87 26 188 28 240 5 37 -16
40 -16 124 14 48 16 97 30 109 30 12 0 35 7 50 15 16 8 48 15 72 15 l43 0 -21
-22 -21 -23 45 -5 c24 -3 53 -13 64 -23 25 -23 47 -21 70 3 28 30 75 40 183
40 l97 0 26 35 c19 25 35 35 54 35 63 0 101 12 108 34 7 22 53 76 65 76 4 0 9
-8 12 -19 3 -13 17 -20 48 -24 55 -7 93 0 145 26 40 20 43 20 77 4 46 -22 52
-22 75 8 16 20 29 25 64 25 35 0 54 7 89 34 52 39 117 66 162 66 52 0 72 10
83 38 8 20 22 30 57 40 25 8 67 27 93 44 26 16 64 32 83 35 20 3 50 13 66 22
l30 16 -42 3 c-23 2 -51 -2 -62 -7 -11 -6 -33 -11 -48 -11 -16 0 -33 -4 -38
-9 -6 -5 -68 -21 -140 -35 -71 -15 -138 -29 -147 -32 -40 -12 -14 16 50 54 56
34 80 42 142 48 41 4 92 13 114 20 21 8 50 14 65 14 14 0 44 12 66 27 31 21
55 28 105 31 36 2 72 10 80 17 29 24 75 43 150 59 128 29 239 76 267 113 23
30 30 33 79 33 49 0 55 3 80 36 16 20 60 58 100 85 40 27 75 53 78 58 3 5 32
19 63 32 40 16 77 42 118 83 99 99 98 96 24 95 -35 -1 -92 -8 -125 -16z"/>
<path d="M11711 2731 c-10 -18 -15 -19 -31 -9 -17 11 -23 9 -41 -9 -22 -22
-45 -121 -31 -135 10 -10 104 24 150 55 23 15 44 39 50 57 10 28 9 32 -14 40
-58 22 -72 22 -83 1z"/>
<path d="M12070 2619 c-19 -12 -37 -25 -38 -30 -2 -5 -21 -18 -41 -29 -21 -10
-43 -25 -50 -34 -7 -8 -41 -32 -76 -52 -69 -41 -92 -73 -74 -105 10 -20 11
-20 42 4 18 13 58 43 90 67 l58 43 152 -17 c84 -10 152 -18 153 -19 0 -1 21
-29 46 -62 l45 -60 -18 -114 c-10 -63 -17 -117 -14 -119 2 -3 16 3 30 12 21
14 25 24 25 64 0 36 7 57 25 82 14 19 25 39 25 45 0 10 -330 345 -340 345 -3
0 -21 -10 -40 -21z"/>
<path d="M11282 2608 c-20 -20 -14 -37 18 -53 50 -26 40 -52 -48 -127 -54 -46
-83 -78 -94 -106 l-16 -40 35 -7 c30 -5 40 -2 63 20 27 26 98 57 111 49 4 -2
10 -19 13 -39 8 -39 17 -48 41 -39 14 6 16 16 10 59 -4 37 -1 64 10 96 31 83
31 84 -25 143 -54 57 -91 71 -118 44z"/>
<path d="M3082 2480 c-22 -28 -48 -75 -58 -105 -9 -30 -20 -55 -24 -55 -3 0
-39 24 -78 54 -79 59 -111 63 -131 20 -15 -34 -14 -59 5 -96 33 -64 -12 -164
-108 -238 -25 -19 -28 -28 -28 -81 0 -57 1 -59 38 -83 20 -13 67 -52 103 -87
106 -102 229 -200 283 -226 28 -13 89 -50 136 -83 47 -33 101 -68 120 -79 19
-11 66 -47 103 -80 80 -72 108 -77 176 -31 58 39 98 39 136 0 16 -16 34 -30
40 -30 6 0 29 -13 51 -29 22 -16 58 -40 81 -53 132 -75 168 -114 178 -195 4
-32 14 -66 22 -75 8 -9 40 -22 71 -29 58 -12 192 -76 226 -108 12 -11 41 -28
66 -39 25 -11 63 -31 84 -46 25 -17 52 -26 78 -26 34 0 40 4 55 34 20 42 53
61 105 59 51 -2 159 -38 192 -64 14 -11 40 -26 59 -34 32 -13 35 -18 41 -70
11 -100 42 -137 130 -160 31 -8 75 -24 97 -36 23 -11 71 -29 107 -38 37 -10
103 -35 147 -55 99 -44 132 -46 170 -6 61 63 145 77 251 39 32 -11 104 -33
158 -47 99 -27 100 -27 108 -62 18 -73 30 -91 79 -116 41 -20 63 -24 141 -24
109 -1 221 -19 296 -49 69 -27 74 -27 115 12 27 25 37 44 42 80 4 26 12 50 17
54 20 12 422 3 434 -10 7 -7 29 -51 49 -100 l37 -87 296 2 296 3 9 35 c5 19
11 52 14 73 3 20 13 41 22 46 22 11 377 25 424 16 30 -6 42 -15 57 -45 11 -21
39 -54 62 -73 39 -33 45 -35 63 -21 44 32 76 38 241 43 l170 6 52 35 c45 31
52 39 52 70 0 21 10 46 23 61 25 29 103 59 155 59 18 0 52 11 75 24 55 32 210
47 223 23 5 -8 28 -36 52 -61 56 -60 70 -60 278 0 28 7 64 14 80 14 16 0 49
10 74 23 26 12 73 24 110 27 l65 5 0 80 c0 107 21 145 80 145 55 0 104 15 131
41 20 19 30 21 79 15 48 -5 60 -3 82 14 44 34 134 22 173 -25 12 -14 15 -14
37 0 13 9 63 23 110 31 97 17 118 26 133 54 8 15 21 20 48 20 21 0 49 8 62 17
13 10 42 20 64 23 37 5 41 9 52 45 7 22 13 70 13 107 l1 67 -71 -30 -72 -31
-69 25 -69 25 -30 -67 -30 -68 -116 -48 -116 -48 -124 43 c-103 36 -126 41
-134 29 -5 -8 -25 -53 -45 -101 l-36 -86 -123 -31 -123 -31 -71 25 -71 24 -32
-47 c-17 -26 -35 -49 -39 -52 -5 -3 -60 -18 -124 -34 l-115 -28 -98 51 -98 50
-83 -83 c-96 -96 -39 -81 -438 -116 l-233 -21 -73 56 c-41 30 -81 55 -91 55
-9 0 -30 10 -46 22 -26 19 -34 20 -68 10 -22 -7 -84 -44 -138 -82 l-99 -71
-200 7 -200 7 -95 80 c-107 90 -98 71 -120 272 -7 66 -16 138 -20 160 l-7 40
-11 -28 c-7 -16 -12 -56 -13 -90 -1 -127 -15 -222 -42 -280 -23 -51 -29 -57
-56 -57 -16 0 -42 5 -58 11 -15 6 -73 15 -128 19 -55 5 -135 15 -178 22 l-78
12 -22 -28 c-17 -21 -29 -27 -52 -24 -30 3 -30 4 -29 63 0 33 8 116 17 183 12
88 17 195 17 366 0 242 0 243 -24 265 l-23 22 -7 -40 c-5 -34 -10 -40 -38 -47
-18 -4 -76 -8 -128 -8 l-94 -1 -22 -75 c-13 -41 -23 -80 -23 -87 -1 -12 56
-31 159 -52 75 -15 120 -44 120 -75 0 -14 -4 -27 -9 -30 -16 -10 -163 14 -231
38 -49 16 -72 20 -91 13 -25 -10 -26 -13 -33 -121 -6 -101 -9 -114 -39 -161
-56 -87 -85 -115 -122 -115 -18 0 -44 9 -59 21 -37 29 -95 45 -196 54 -59 5
-103 15 -145 34 l-60 27 -25 -60 c-32 -77 -56 -82 -54 -11 3 123 56 425 84
481 11 21 20 58 20 82 0 37 -3 43 -17 38 -75 -22 -89 -19 -125 24 -20 22 -41
60 -47 83 -12 43 -10 181 3 194 4 4 -17 18 -46 31 -50 22 -53 22 -66 5 -7 -10
-16 -29 -19 -43 -3 -14 -14 -36 -23 -50 -10 -14 -25 -54 -35 -90 -10 -36 -25
-83 -35 -105 -10 -22 -21 -62 -25 -90 -7 -49 -107 -256 -145 -300 -10 -11 -21
-35 -25 -53 -8 -38 -40 -45 -51 -10 -7 24 -92 107 -110 108 -6 0 -26 10 -45
23 -40 27 -116 57 -144 57 -11 0 -42 12 -68 26 -27 14 -58 24 -70 22 -19 -3
-22 -10 -25 -50 -3 -43 -5 -48 -28 -48 -23 0 -24 3 -24 58 0 39 7 71 20 97 46
88 107 270 115 341 4 36 19 86 40 129 19 39 40 91 47 118 l12 47 -93 94 c-92
92 -93 95 -87 131 l7 36 -48 -6 c-57 -9 -90 -36 -99 -81 -3 -18 -20 -50 -38
-71 -18 -21 -42 -53 -55 -71 l-22 -32 30 -30 c16 -17 36 -30 45 -30 12 0 13
-5 5 -30 -13 -35 -8 -34 -59 -14 -24 10 -45 13 -50 8 -4 -5 -27 -56 -51 -114
-46 -115 -67 -145 -107 -155 -55 -13 -72 -32 -72 -80 0 -32 -6 -51 -21 -66
-39 -39 -47 -20 -37 80 3 31 -1 36 -42 58 -24 13 -54 32 -65 42 -11 10 -40 29
-65 41 -25 12 -54 30 -65 41 -23 20 -92 38 -150 39 -32 0 -46 -7 -76 -36 -68
-67 -98 -6 -38 76 37 50 93 153 104 190 4 14 19 41 34 60 15 19 35 55 46 80
10 25 26 54 35 65 9 11 27 47 40 80 13 33 39 93 57 133 33 70 34 74 16 87 -20
16 -34 13 -110 -21 -29 -13 -53 -29 -53 -36 0 -19 -84 -67 -131 -74 -36 -6
-44 -3 -74 26 l-34 33 -43 -28 c-24 -15 -94 -79 -157 -142 -101 -102 -187
-173 -207 -173 -4 0 -4 21 0 46 3 25 1 54 -4 64 -8 14 -5 33 10 72 11 29 20
65 20 80 0 32 -51 148 -73 167 -10 7 -17 20 -17 28 0 24 -102 124 -152 149
l-47 24 -39 -50z"/>
<path d="M11883 2332 l-142 -107 -12 -81 -12 -80 47 -61 48 -61 99 -12 99 -12
138 103 c75 56 140 107 144 112 3 6 11 44 17 85 l11 74 -48 61 -48 62 -85 12
c-46 6 -91 12 -99 12 -8 0 -79 -48 -157 -107z m276 -47 c22 -30 41 -56 41 -59
0 -3 -63 -53 -139 -111 l-140 -105 -44 62 -45 62 137 103 c75 56 139 103 142
103 4 0 25 -25 48 -55z"/>
<path d="M4824 2286 c-27 -7 -39 -16 -36 -25 3 -9 -2 -11 -14 -8 -107 32 -158
-4 -68 -47 22 -11 51 -25 66 -33 51 -26 95 -9 66 25 -8 9 -18 23 -23 31 -10
17 18 9 100 -30 l60 -29 12 28 c19 42 17 45 -45 71 -75 31 -71 30 -118 17z"/>
<path d="M10720 2184 c-147 -62 -255 -115 -273 -131 -16 -16 -49 -67 -72 -115
-36 -73 -45 -84 -56 -73 -8 8 -48 32 -89 54 l-75 40 -250 -63 c-139 -35 -266
-73 -287 -85 -20 -12 -58 -51 -84 -87 -26 -35 -51 -64 -56 -64 -5 0 -39 23
-75 50 -36 27 -71 50 -78 50 -10 0 -102 -8 -455 -40 l-115 -11 -49 -52 -49
-51 -41 46 -41 46 -129 6 -128 6 -42 -32 c-22 -17 -46 -35 -51 -39 -6 -5 -32
10 -60 34 l-48 42 -134 3 -133 4 -67 -65 -67 -65 17 -159 c10 -87 22 -192 27
-233 5 -41 23 -194 39 -340 17 -146 34 -282 37 -303 5 -30 17 -47 69 -91 l63
-53 200 -8 200 -7 70 51 c63 46 71 56 77 94 4 23 20 107 35 187 15 80 45 238
66 352 21 114 39 207 40 205 2 -2 32 -321 56 -610 7 -81 15 -151 18 -156 10
-14 143 -111 153 -111 10 0 417 35 524 46 61 5 62 6 120 72 l59 67 -9 98 -10
99 -73 55 -74 55 -100 -9 c-55 -5 -100 -6 -100 -2 0 7 87 19 142 19 33 0 43 7
95 66 32 36 61 73 64 82 3 9 27 -69 53 -173 25 -105 51 -208 57 -230 9 -37 17
-44 94 -85 l83 -44 122 29 123 30 31 47 c17 26 37 48 45 48 8 0 40 -10 72 -21
l58 -21 113 27 c62 15 119 31 127 35 14 8 80 153 81 178 0 7 -26 48 -58 90
-32 42 -68 91 -80 109 l-23 32 34 51 c31 45 34 56 26 88 -4 20 -7 38 -5 39 1
1 40 -86 86 -195 45 -108 87 -202 92 -208 4 -6 48 -26 96 -43 l89 -31 114 47
114 48 30 62 c17 34 32 64 35 67 3 3 35 -6 71 -19 l66 -24 113 49 c62 27 115
52 118 55 3 3 20 38 37 78 l32 72 -19 45 c-11 25 -103 241 -205 480 -101 239
-190 440 -196 447 -7 6 -50 25 -97 41 l-86 30 -244 -104z m470 -396 c89 -211
182 -429 206 -486 l43 -103 -37 -16 c-20 -8 -68 -28 -106 -44 -37 -16 -73 -29
-80 -29 -6 0 -40 69 -75 153 -35 83 -65 154 -67 156 -4 4 -175 -68 -188 -79
-5 -5 18 -72 52 -152 33 -79 62 -149 64 -157 3 -16 -212 -115 -224 -103 -3 4
-84 189 -178 412 l-172 405 58 118 c32 64 63 117 69 118 5 0 107 42 225 94
118 51 222 94 231 94 12 1 58 -98 179 -381z m-995 33 c13 -41 155 -615 155
-626 0 -7 -26 -18 -60 -25 -33 -7 -60 -16 -60 -19 0 -4 54 -80 120 -171 l120
-164 -107 -28 c-60 -15 -116 -27 -126 -25 -9 1 -67 72 -130 162 -103 145 -116
160 -142 158 -15 -1 -30 -5 -33 -8 -3 -3 14 -86 38 -185 24 -99 41 -182 37
-186 -5 -6 -230 -63 -233 -60 -1 0 -50 195 -108 431 -59 237 -109 435 -111
442 -2 6 28 53 66 105 l69 93 238 61 c130 34 242 62 249 63 6 0 14 -7 18 -18z
m-844 -198 c0 -10 4 -55 7 -100 4 -46 5 -83 2 -83 -3 0 -72 -7 -155 -15 -82
-8 -154 -15 -159 -15 -9 0 -1 -189 9 -198 3 -3 73 0 156 7 83 7 153 11 155 8
2 -2 7 -47 11 -99 l6 -96 -109 -7 c-145 -10 -199 -18 -199 -30 3 -84 19 -236
25 -240 4 -2 45 0 91 4 46 5 118 12 161 15 l76 7 6 -28 c3 -15 8 -60 11 -99
l7 -71 -124 -12 c-350 -32 -461 -42 -463 -39 -2 2 -10 86 -19 188 -9 102 -21
232 -26 290 -30 327 -51 573 -48 575 2 2 87 11 188 20 102 9 219 20 260 24
122 13 130 13 131 -6z m-1245 -36 c4 -3 12 -75 19 -159 8 -84 19 -209 25 -278
26 -307 31 -354 33 -357 2 -1 18 88 35 200 68 435 93 581 98 586 4 5 246 2
251 -3 1 0 -34 -195 -78 -431 -44 -237 -88 -473 -98 -525 l-17 -95 -195 4
c-107 2 -197 6 -200 10 -3 3 -32 229 -63 501 -31 272 -60 510 -63 529 l-6 34
127 -5 c69 -3 129 -8 132 -11z m1354 -249 c6 -24 14 -51 17 -62 4 -14 -5 -11
-40 15 l-45 34 20 28 c26 37 35 34 48 -15z"/>
<path d="M10768 1852 c-48 -20 -88 -41 -88 -47 0 -18 112 -275 120 -275 12 0
174 70 183 79 9 9 -104 281 -118 281 -5 -1 -49 -18 -97 -38z"/>
<path d="M9887 1560 c-38 -10 -71 -20 -73 -23 -4 -4 54 -256 61 -265 3 -3 177
39 184 44 2 2 -34 164 -55 242 -8 27 -24 27 -117 2z"/>
<path d="M12461 2235 c-7 -24 -19 -49 -27 -56 -19 -16 -18 -55 2 -63 31 -12
65 -6 82 16 9 11 24 29 33 38 16 17 14 21 -30 64 l-47 46 -13 -45z"/>
<path d="M11477 2247 c-8 -7 -30 -37 -50 -68 -28 -45 -46 -61 -86 -80 -28 -12
-51 -25 -51 -29 0 -3 40 -98 88 -210 l88 -205 34 3 c68 6 70 8 70 69 0 39 4
53 13 51 6 -3 14 -18 17 -34 5 -27 8 -29 55 -29 l50 0 3 37 c2 25 -6 54 -24
90 -35 69 -36 123 -3 326 7 40 9 75 6 78 -14 15 -35 -7 -41 -43 -4 -21 -12
-50 -17 -65 -11 -26 -12 -27 -39 -13 -36 18 -43 30 -50 79 -6 43 -36 64 -63
43z"/>
<path d="M7711 984 c0 -11 3 -14 6 -6 3 7 2 16 -1 19 -3 4 -6 -2 -5 -13z"/>
</g>
</svg>
